<svg xmlns="http://www.w3.org/2000/svg" enable-background="new 0 0 202.984 228.037" viewBox="0 0 202.984 228.037"><path d="M137.574,166.853c-1.543,17.22-9.446,31.805-23.611,43.461c-4.264,3.51-4.876,9.812-1.367,14.076
		c1.978,2.402,4.841,3.646,7.728,3.646c2.236,0,4.487-0.746,6.349-2.278c16.759-13.791,26.964-31.334,30.128-51.471
		c3.77,13.096,7.204,28.3,9.286,44.988c0.631,5.06,4.939,8.763,9.91,8.763c0.413,0,0.831-0.025,1.25-0.078
		c5.48-0.684,9.369-5.681,8.685-11.161c-2.887-23.146-8.123-43.493-13.464-59.759C158.998,162.587,147.265,165.479,137.574,166.853z
		" fill="#343b53"/><path d="M105.316,162.812c0,0,32.428,11.223,85.395-17.871c-7.906-11.232-12.548-22.174-15.451-32.431
		c-34.392-10.095-37.515-43.285-37.547-43.678c-0.409-5.111,3.417-9.604,8.528-10.013c0.253-0.021,0.511-0.031,0.766-0.031
		c4.774,0,8.835,3.738,9.243,8.51c0.004,0.043,0.813,7.566,5.951,14.77c2.377,3.331,5.315,6.09,8.775,8.296
		c-2.935-23.461-1.872-40.142-23.885-42.907c-1.055-0.133-2.077-0.16-3.079-0.125c-0.298-0.026-0.599-0.04-0.906-0.028
		c-0.585,0.025-6.223,0.348-13.963,3.542C116.623,56.015,98.6,68.702,87.553,99.834c-0.923,2.603-0.209,5.383,1.6,7.233
		l-17.358,35.925c-0.631-0.79-1.435-1.458-2.402-1.925l-25.446-12.295c-3.467-1.675-7.673-0.209-9.348,3.258L2.77,197.904
		c-1.134,2.346-0.824,5.029,0.566,7.039L0,211.914l4.961,2.374l2.935-6.133l20.568,9.938c1.083-3.399,3.976-6.096,7.73-6.729
		c2.307-0.389,4.564,0.066,6.458,1.136l17.672-36.575l0,0l32.339-66.931c0.496,0.109,0.993,0.182,1.487,0.182
		c2.88,0,5.579-1.792,6.597-4.661c3.619-10.199,8.025-17.992,12.62-23.949c1.691-2.192,3.408-4.132,5.121-5.855
		C105.968,108.872,105.316,162.812,105.316,162.812z" fill="#343b53"/><ellipse cx="161.444" cy="22.497" rx="22.496" ry="22.493" transform="rotate(-10.359 161.472 22.501)" fill="#343b53"/><path d="M196.06,99.091c-16.41-0.178-28.432-5.456-35.73-15.687c-5.513-7.728-6.349-15.684-6.371-15.909
		c-0.328-3.836-3.686-6.699-7.533-6.382c-3.854,0.309-6.728,3.682-6.419,7.536c0.035,0.438,4.108,43.878,55.901,44.441
		c0.026,0,0.052,0,0.078,0c3.83,0,6.956-3.084,6.998-6.924C203.026,102.301,199.925,99.133,196.06,99.091z" fill="#343b53"/><circle cx="37.83" cy="221.061" r="6.833" transform="rotate(-9.564 37.856 221.029)"/></svg>