<svg xmlns="http://www.w3.org/2000/svg" enable-background="new 0 0 32 32" viewBox="0 0 32 32"><circle cx="24.75" cy="7" r="2" fill="#fdd92e"/><path fill="#e71e25" d="M2.322,14.289c-0.579-3.263,2.478-6.534,6.829-7.305s8.346,1.247,8.925,4.51L2.322,14.289z"/><path fill="#d9d9db" d="M5.276,13.765c-0.579-3.263,1.156-6.299,3.875-6.781s5.392,1.771,5.971,5.034L5.276,13.765z"/><path fill="#e71e25" d="M8.23,13.241C7.651,9.978,8.063,7.177,9.151,6.984c1.088-0.193,2.439,2.296,3.018,5.558L8.23,13.241z"/><path d="M29.25,30.5h-27c-0.276,0-0.5-0.224-0.5-0.5s0.224-0.5,0.5-0.5h27c0.276,0,0.5,0.224,0.5,0.5S29.526,30.5,29.25,30.5z"/><path d="M27.714,29.814l-2-5c-0.001-0.001-0.002-0.002-0.003-0.004c-0.02-0.05-0.052-0.093-0.087-0.133  c-0.008-0.009-0.012-0.022-0.02-0.03c-0.031-0.031-0.07-0.051-0.108-0.073c-0.018-0.01-0.032-0.026-0.051-0.034  c-0.011-0.005-0.024-0.004-0.036-0.008c-0.051-0.017-0.102-0.031-0.157-0.032c-0.001,0-0.002-0.001-0.003-0.001H7.518l-3.852-5.777  c-0.153-0.23-0.463-0.292-0.693-0.139c-0.23,0.153-0.292,0.463-0.139,0.693l3.854,5.781l-1.902,4.756  c-0.103,0.256,0.022,0.547,0.279,0.65C5.125,30.489,5.188,30.5,5.25,30.5c0.198,0,0.386-0.119,0.464-0.314L7.589,25.5h17.323  l1.874,4.686c0.078,0.196,0.266,0.314,0.464,0.314c0.062,0,0.125-0.011,0.186-0.036C27.692,30.362,27.817,30.071,27.714,29.814z"/><path d="M9.559 6.423L9.468 5.912C9.42 5.641 9.166 5.458 8.889 5.507c-.272.048-.453.308-.405.58l.091.51c-2.009.449-3.79 1.415-5.052 2.764-1.4 1.498-2.001 3.279-1.693 5.016.043.242.254.413.492.413.029 0 .058-.002.088-.008l7.385-1.31 2.948 16.611c.043.242.254.413.492.413.029 0 .058-.002.088-.008.272-.048.453-.308.405-.58l-2.948-16.611 1.477-.262 0 0 5.907-1.048c.13-.023.247-.097.322-.206.076-.108.106-.243.083-.374C17.964 8.005 13.979 5.84 9.559 6.423zM9.276 7.473c.501 0 1.67 1.571 2.306 4.665l-2.94.522c-.2-1.346-.23-2.618-.082-3.626.172-1.167.519-1.53.678-1.558C9.25 7.474 9.263 7.473 9.276 7.473zM6.411 9.58c.35-.614.805-1.102 1.325-1.465C7.672 8.344 7.614 8.593 7.571 8.889c-.163 1.107-.122 2.495.096 3.944l-1.967.349C5.566 11.889 5.813 10.626 6.411 9.58zM12.565 11.964c-.357-1.729-.962-3.37-1.702-4.402 1.68.444 3.134 1.984 3.662 4.054L12.565 11.964zM4.253 10.044C4.659 9.61 5.146 9.237 5.663 8.896 5.624 8.959 5.58 9.018 5.543 9.084c-.712 1.246-.976 2.746-.806 4.269l-1.98.351C2.691 12.442 3.211 11.159 4.253 10.044zM15.506 11.443c-.4-1.633-1.301-2.995-2.461-3.888 2.179.5 3.88 1.784 4.42 3.54L15.506 11.443zM24.75 4.5c-1.378 0-2.5 1.122-2.5 2.5s1.122 2.5 2.5 2.5 2.5-1.122 2.5-2.5S26.128 4.5 24.75 4.5zM24.75 8.5c-.827 0-1.5-.673-1.5-1.5s.673-1.5 1.5-1.5 1.5.673 1.5 1.5S25.577 8.5 24.75 8.5zM24.75 3.5c.276 0 .5-.224.5-.5V2c0-.276-.224-.5-.5-.5s-.5.224-.5.5v1C24.25 3.276 24.474 3.5 24.75 3.5zM24.75 10.5c-.276 0-.5.224-.5.5v1c0 .276.224.5.5.5s.5-.224.5-.5v-1C25.25 10.724 25.026 10.5 24.75 10.5zM29.75 6.5h-1c-.276 0-.5.224-.5.5s.224.5.5.5h1c.276 0 .5-.224.5-.5S30.026 6.5 29.75 6.5zM21.25 7c0-.276-.224-.5-.5-.5h-1c-.276 0-.5.224-.5.5s.224.5.5.5h1C21.026 7.5 21.25 7.276 21.25 7zM27.579 4.671c.128 0 .256-.049.354-.146l.707-.707c.195-.195.195-.512 0-.707s-.512-.195-.707 0l-.707.707c-.195.195-.195.512 0 .707C27.323 4.623 27.451 4.671 27.579 4.671zM21.568 9.475l-.707.707c-.195.195-.195.512 0 .707.098.098.226.146.354.146s.256-.049.354-.146l.707-.707c.195-.195.195-.512 0-.707S21.763 9.28 21.568 9.475zM27.932 9.475c-.195-.195-.512-.195-.707 0s-.195.512 0 .707l.707.707c.098.098.226.146.354.146s.256-.049.354-.146c.195-.195.195-.512 0-.707L27.932 9.475zM21.568 4.525c.098.098.226.146.354.146s.256-.049.354-.146c.195-.195.195-.512 0-.707l-.707-.707c-.195-.195-.512-.195-.707 0s-.195.512 0 .707L21.568 4.525z"/></svg>