<?xml version="1.0" encoding="utf-8"?>
<!-- Generator: Adobe Illustrator 16.0.0, SVG Export Plug-In . SVG Version: 6.00 Build 0)  -->
<!DOCTYPE svg PUBLIC "-//W3C//DTD SVG 1.1//EN" "http://www.w3.org/Graphics/SVG/1.1/DTD/svg11.dtd">
<svg version="1.1" id="Layer_1" xmlns="http://www.w3.org/2000/svg" xmlns:xlink="http://www.w3.org/1999/xlink" x="0px" y="0px"
	 width="1200px" height="301.371px" viewBox="0 0 1200 301.371" enable-background="new 0 0 1200 301.371" xml:space="preserve">
<g>
	<g>
		<path fill="#FFFFFF" d="M652.864,257.024c0,1.06,0.013,1.935,0.033,2.606c0.004,0.678,0.035,1.205,0.063,1.603
			c0.049,0.425,0.077,0.75,0.109,0.97c-2.193,0-3.893-0.468-5.043-1.392c-1.185-0.933-1.775-2.449-1.775-4.577l0.113-25.796h-11.713
			c0-1.589,0.441-2.87,1.317-3.827c0.889-0.957,2.156-1.443,3.79-1.443h24.823c0,1.603-0.442,2.879-1.33,3.828
			c-0.892,0.965-2.156,1.442-3.786,1.442h-6.661L652.864,257.024z"/>
		<path fill="#FFFFFF" d="M666.722,249.354c0-2.384,0.341-4.325,1.033-5.829c0.687-1.509,1.585-2.695,2.688-3.544
			c1.106-0.862,2.344-1.431,3.706-1.729c1.365-0.31,2.731-0.459,4.077-0.459h2.6c0.193,0.75,0.219,1.436,0.121,2.084
			c-0.084,0.526-0.315,1.041-0.722,1.537c-0.414,0.494-1.065,0.807-1.999,0.902c-0.6,0.073-1.191,0.211-1.783,0.41
			c-0.589,0.178-1.114,0.525-1.572,1.009c-0.471,0.479-0.844,1.16-1.147,2.052c-0.292,0.881-0.462,2.075-0.462,3.567v7.72
			c0,1.069,0.021,1.93,0.032,2.59c0.024,0.656,0.049,1.172,0.085,1.569c0.037,0.425,0.064,0.75,0.098,0.97
			c-2.174,0-3.836-0.463-5.003-1.367c-1.172-0.907-1.751-2.424-1.751-4.553L666.722,249.354L666.722,249.354z"/>
		<path fill="#FFFFFF" d="M686.586,248.608c0.961-0.606,2.043-1.054,3.251-1.354c1.209-0.305,2.461-0.463,3.774-0.463
			c1.86,0,3.604,0.276,5.281,0.809c-0.108-1.096-0.336-2.076-0.691-2.947c-0.467-1.087-1.151-1.895-2.076-2.384
			c-0.356-0.179-0.741-0.313-1.147-0.406c-0.413-0.075-0.888-0.125-1.413-0.125h-0.58c-0.499,0.032-1.002,0.117-1.484,0.239
			c-0.51,0.13-1.005,0.271-1.508,0.449c-0.494,0.179-0.993,0.332-1.487,0.449c-0.503,0.139-0.974,0.19-1.436,0.19
			c-0.494,0-0.981-0.112-1.447-0.315c-0.422-0.252-0.794-0.66-1.11-1.236l-0.112-0.202l0.112-0.166
			c1.066-1.123,2.314-2.048,3.746-2.735c1.455-0.689,3.021-1.092,4.728-1.201c0.17-0.031,0.319-0.053,0.44-0.053
			c0.135,0,0.284,0,0.459,0c1.633,0,3.129,0.301,4.471,0.881c1.348,0.582,2.521,1.395,3.517,2.416
			c2.039,2.205,3.063,5.106,3.146,8.69v0.422c0,3.697-0.939,6.692-2.816,9.009c-0.926,1.135-2.043,2.051-3.332,2.764
			c-1.298,0.711-2.741,1.16-4.348,1.326c-0.21,0.045-0.43,0.062-0.636,0.062c-0.215,0-0.45,0-0.688,0
			c-0.754,0-1.524-0.062-2.349-0.183c-0.821-0.129-1.621-0.369-2.392-0.727c-0.827-0.313-1.569-0.729-2.242-1.244
			c-0.673-0.52-1.236-1.188-1.702-1.998c-0.682-1.029-1.03-2.291-1.074-3.783v-0.324c0-1.387,0.287-2.537,0.867-3.465
			C684.794,250.076,685.557,249.281,686.586,248.608z M697.621,251.167c-0.462-0.073-0.993-0.139-1.581-0.215
			c-0.584-0.078-1.18-0.105-1.783-0.105c-0.491,0-0.985,0.023-1.436,0.085c-0.468,0.036-0.894,0.146-1.277,0.278
			c-0.888,0.297-1.568,0.738-2.019,1.338c-0.188,0.207-0.329,0.459-0.438,0.715c-0.101,0.275-0.182,0.566-0.219,0.888
			c-0.032,0.113-0.049,0.261-0.049,0.479c0,0.359,0.049,0.732,0.167,1.144c0.101,0.405,0.314,0.79,0.632,1.144
			c0.28,0.369,0.697,0.664,1.266,0.912c0.543,0.242,1.272,0.369,2.201,0.369c0.283,0,0.506-0.021,0.637-0.054
			c0.997-0.036,1.882-0.315,2.614-0.854c0.36-0.215,0.648-0.475,0.904-0.771c0.247-0.302,0.466-0.633,0.645-0.985
			c0.381-0.686,0.646-1.365,0.786-2.076c0.146-0.713,0.224-1.356,0.224-1.974c-0.036,0-0.058-0.005-0.076-0.021
			c-0.024-0.024-0.058-0.032-0.086-0.032c-0.143-0.033-0.301-0.065-0.479-0.103C698.067,251.292,697.856,251.239,697.621,251.167z"
			/>
		<path fill="#FFFFFF" d="M723.081,260.058c-0.641,1.176-1.387,1.982-2.238,2.402c-0.852,0.427-1.649,0.674-2.399,0.734
			c-0.896,0.086-1.783-0.063-2.667-0.418c-0.276-0.645-0.665-1.527-1.145-2.688c-0.481-1.159-1.01-2.438-1.602-3.855
			c-0.58-1.436-1.208-2.919-1.854-4.482c-0.665-1.569-1.275-3.065-1.859-4.496c-0.602-1.447-1.127-2.741-1.609-3.908
			c-0.482-1.188-0.848-2.088-1.1-2.729c-0.143-0.316-0.275-0.638-0.417-0.961c-0.15-0.316-0.265-0.617-0.373-0.9
			c-0.146-0.324-0.271-0.641-0.373-0.965c1.065-0.252,2.075-0.332,3.036-0.26c0.812,0.068,1.635,0.305,2.474,0.719
			c0.831,0.4,1.495,1.18,2.003,2.317c0.133,0.39,0.344,0.912,0.604,1.565c0.268,0.66,0.566,1.369,0.854,2.156
			c0.304,0.785,0.62,1.604,0.961,2.449c0.336,0.858,0.669,1.709,0.98,2.564c0.75,1.945,1.568,4.07,2.448,6.337
			c0.855-2.267,1.675-4.392,2.461-6.337c0.316-0.855,0.648-1.706,1.001-2.564c0.36-0.845,0.687-1.664,0.989-2.449
			c0.31-0.787,0.576-1.496,0.831-2.156c0.247-0.653,0.462-1.176,0.637-1.565c0.467-1.139,1.123-1.917,1.975-2.317
			c0.848-0.414,1.688-0.649,2.498-0.719c0.961-0.072,1.979,0.008,3.036,0.26c-0.139,0.291-0.284,0.58-0.427,0.908
			c-0.104,0.283-0.227,0.596-0.373,0.924c-0.142,0.346-0.259,0.678-0.372,0.994c-0.243,0.68-0.579,1.549-1.014,2.635
			c-0.418,1.091-0.88,2.254-1.351,3.52c-0.479,1.266-0.997,2.559-1.558,3.885c-0.552,1.332-1.058,2.605-1.564,3.842
			c-0.494,1.217-0.969,2.315-1.418,3.301C723.726,258.772,723.364,259.526,723.081,260.058z"/>
		<path fill="#FFFFFF" d="M752.639,257.024c0.431,0.261,0.835,0.679,1.221,1.276l0.157,0.176l-0.157,0.148
			c-1.172,1.277-2.555,2.274-4.177,3.004c-1.62,0.73-3.359,1.096-5.246,1.096c-1.637,0-3.17-0.324-4.608-0.985
			c-1.442-0.651-2.707-1.567-3.803-2.743c-1.07-1.141-1.913-2.478-2.541-4.025c-0.608-1.532-0.938-3.203-0.938-4.979
			c0-1.769,0.288-3.439,0.831-4.979c0.555-1.54,1.346-2.902,2.375-4.07c1.038-1.147,2.271-2.039,3.759-2.726
			c1.468-0.676,3.113-1.008,4.925-1.008c0.998,0,2.094,0.146,3.28,0.444c1.184,0.306,2.286,0.787,3.32,1.443
			c1.029,0.661,1.89,1.521,2.554,2.579c0.678,1.074,1.019,2.347,1.019,3.847c0,1.446-0.373,2.631-1.114,3.53
			c-0.746,0.916-1.634,1.617-2.651,2.138c-1.051,0.515-2.129,0.867-3.296,1.074c-1.147,0.187-2.157,0.282-3,0.282
			c-1.313,0-2.457-0.076-3.438-0.238c-0.974-0.153-1.646-0.275-1.998-0.344c0.146,1.271,0.43,2.307,0.854,3.113
			c0.422,0.799,0.896,1.438,1.443,1.893c0.521,0.453,1.054,0.767,1.589,0.929c0.535,0.166,1.018,0.243,1.438,0.243
			c0.746,0,1.447-0.073,2.13-0.211c0.682-0.146,1.276-0.301,1.813-0.49c0.535-0.158,1.041-0.354,1.516-0.527
			c0.479-0.17,0.953-0.259,1.411-0.259C751.804,256.656,752.232,256.777,752.639,257.024z M744.438,241.737
			c-0.396,0.032-0.852,0.125-1.391,0.296c-0.527,0.154-1.046,0.45-1.558,0.871c-0.526,0.442-0.992,1.03-1.41,1.813
			c-0.438,0.787-0.734,1.789-0.912,2.988c0.56,0.183,1.37,0.35,2.424,0.506c1.042,0.164,2.088,0.184,3.15,0.082
			c1.038-0.109,1.962-0.405,2.757-0.908c0.811-0.498,1.236-1.342,1.307-2.51c0.075-0.879-0.28-1.642-1.043-2.295
			C746.999,241.957,745.884,241.677,744.438,241.737z"/>
		<path fill="#FFFFFF" d="M769.523,257.397c0.068,0.912,0,1.761-0.211,2.506c-0.188,0.642-0.535,1.248-1.063,1.837
			c-0.539,0.592-1.371,0.924-2.51,0.984c-1.107,0.105-2.061-0.004-2.879-0.35c-0.808-0.336-1.496-0.803-2.052-1.41
			c-0.547-0.604-0.952-1.313-1.217-2.121c-0.274-0.821-0.399-1.674-0.399-2.561v-25.955c-0.041-1.065-0.069-1.922-0.082-2.582
			c-0.017-0.648-0.045-1.176-0.072-1.568c-0.041-0.426-0.081-0.758-0.109-1.01c2.193,0,3.883,0.463,5.051,1.387
			c1.185,0.92,1.761,2.438,1.761,4.527v24.561c0,0.852,0.166,1.472,0.479,1.841c0.32,0.368,0.689,0.587,1.114,0.66
			c0.438,0.073,0.848,0.021,1.29-0.134C769.045,257.852,769.357,257.653,769.523,257.397z"/>
		<path fill="#FFFFFF" d="M792.384,257.024c0,1.06,0.009,1.935,0.029,2.606c0.012,0.678,0.036,1.205,0.063,1.603
			c0.05,0.425,0.077,0.75,0.109,0.97c-2.205,0-3.871-0.468-5.023-1.392c-1.162-0.933-1.737-2.437-1.737-4.528l0.048-18.912
			c0-1.779,0.264-3.426,0.782-4.953c0.508-1.528,1.28-2.883,2.314-4.051c1.001-1.164,2.197-2.084,3.616-2.744
			c1.427-0.652,3.049-0.98,4.861-0.98c1.058,0,1.966,0.174,2.707,0.525c0.814,0.324,1.46,0.853,1.922,1.603
			c0.279,0.567,0.418,1.14,0.418,1.707c0,0.39-0.053,0.75-0.158,1.11l-0.113,0.32l-0.26-0.109c-0.49-0.174-1.078-0.324-1.727-0.438
			c-0.657-0.134-1.392-0.198-2.21-0.198c-0.288,0-0.638,0.032-1.07,0.102c-0.413,0.076-0.888,0.242-1.382,0.49
			c-0.499,0.244-0.965,0.593-1.407,1.033c-0.446,0.455-0.831,1.043-1.151,1.789c-0.219,0.493-0.381,1.086-0.503,1.754
			c-0.12,0.678-0.187,1.433-0.187,2.291v0.588h7.188c0,1.594-0.44,2.875-1.337,3.84c-0.884,0.953-2.129,1.436-3.778,1.436h-2.071
			L792.384,257.024z"/>
		<path fill="#FFFFFF" d="M820.511,241c1.091,1.131,1.954,2.474,2.583,4.014c0.624,1.541,0.924,3.211,0.924,4.979
			c0,1.775-0.283,3.446-0.854,4.979c-0.56,1.549-1.354,2.886-2.392,4.024c-1.019,1.176-2.274,2.096-3.767,2.766
			c-1.456,0.682-3.11,1.018-4.91,1.018c-1.642,0-3.187-0.336-4.612-1.018c-1.433-0.67-2.708-1.59-3.808-2.766
			c-1.065-1.14-1.914-2.477-2.538-4.024c-0.611-1.532-0.925-3.203-0.925-4.979c0-1.768,0.276-3.438,0.819-4.979
			c0.556-1.54,1.338-2.883,2.372-4.014c1.036-1.188,2.277-2.097,3.766-2.781c1.464-0.678,3.104-1.01,4.926-1.01
			c1.666,0,3.228,0.332,4.658,1.01C818.2,238.903,819.433,239.812,820.511,241z M812.095,258.196c0.45,0,0.998-0.112,1.613-0.323
			c0.621-0.207,1.217-0.617,1.78-1.217c0.578-0.604,1.062-1.439,1.447-2.506c0.4-1.07,0.588-2.451,0.588-4.158
			c0-1.699-0.188-3.095-0.588-4.185c-0.387-1.07-0.868-1.923-1.447-2.502c-0.563-0.579-1.159-0.989-1.78-1.195
			c-0.615-0.215-1.163-0.323-1.613-0.323c-0.458,0-1.014,0.108-1.63,0.323c-0.62,0.206-1.22,0.616-1.771,1.195
			c-0.579,0.579-1.063,1.432-1.455,2.502c-0.395,1.09-0.584,2.483-0.584,4.185c0,1.707,0.189,3.088,0.584,4.158
			c0.394,1.066,0.876,1.9,1.455,2.506c0.552,0.6,1.15,1.01,1.771,1.217C811.081,258.083,811.637,258.196,812.095,258.196z"/>
		<path fill="#FFFFFF" d="M828.02,249.354c0-2.384,0.336-4.325,1.029-5.829c0.701-1.509,1.598-2.695,2.7-3.544
			c1.106-0.862,2.327-1.431,3.705-1.729c1.362-0.31,2.725-0.459,4.07-0.459h2.618c0.166,0.75,0.203,1.436,0.105,2.084
			c-0.077,0.526-0.313,1.041-0.727,1.537c-0.408,0.494-1.078,0.807-1.998,0.902c-0.608,0.073-1.2,0.211-1.788,0.41
			c-0.593,0.178-1.106,0.525-1.568,1.009c-0.471,0.479-0.844,1.16-1.144,2.052c-0.297,0.881-0.463,2.075-0.463,3.567v7.72
			c0,1.069,0.013,1.93,0.036,2.59c0.018,0.656,0.05,1.172,0.073,1.569c0.04,0.425,0.077,0.75,0.105,0.97
			c-2.165,0-3.836-0.463-5.008-1.367c-1.164-0.907-1.752-2.424-1.752-4.553v-6.929H828.02z"/>
		<path fill="#FFFFFF" d="M868.126,257.397c0.068,0.912,0,1.761-0.207,2.506c-0.183,0.642-0.539,1.248-1.065,1.837
			c-0.527,0.592-1.375,0.924-2.506,0.984c-1.11,0.105-2.063-0.004-2.879-0.35c-0.813-0.336-1.508-0.803-2.047-1.41
			c-0.552-0.604-0.97-1.313-1.232-2.121c-0.26-0.821-0.396-1.674-0.396-2.561v-25.955c-0.028-1.065-0.057-1.922-0.077-2.582
			c-0.023-0.648-0.04-1.176-0.081-1.568c-0.027-0.426-0.067-0.758-0.102-1.01c2.197,0,3.896,0.463,5.043,1.387
			c1.185,0.92,1.771,2.438,1.771,4.527v24.561c0,0.852,0.162,1.472,0.475,1.841c0.32,0.368,0.697,0.587,1.123,0.66
			s0.854,0.021,1.272-0.134C867.651,257.852,867.96,257.653,868.126,257.397z"/>
		<path fill="#FFFFFF" d="M891.72,257.024c0.436,0.261,0.841,0.679,1.241,1.276l0.149,0.176l-0.149,0.148
			c-1.176,1.277-2.574,2.274-4.185,3.004c-1.613,0.73-3.364,1.096-5.25,1.096c-1.63,0-3.166-0.324-4.613-0.985
			c-1.435-0.651-2.708-1.567-3.803-2.743c-1.07-1.141-1.917-2.478-2.529-4.025c-0.62-1.532-0.937-3.203-0.937-4.979
			c0-1.769,0.279-3.439,0.826-4.979c0.552-1.54,1.338-2.902,2.371-4.07c1.026-1.147,2.283-2.039,3.768-2.726
			c1.455-0.676,3.104-1.008,4.917-1.008c0.989,0,2.08,0.146,3.284,0.444c1.176,0.306,2.291,0.787,3.319,1.443
			c1.034,0.661,1.877,1.521,2.554,2.579c0.679,1.074,1.011,2.347,1.011,3.847c0,1.446-0.373,2.631-1.119,3.53
			c-0.75,0.916-1.625,1.617-2.659,2.138c-1.018,0.515-2.12,0.867-3.271,1.074c-1.162,0.187-2.156,0.282-3.004,0.282
			c-1.313,0-2.465-0.076-3.441-0.238c-0.978-0.153-1.649-0.275-2.006-0.344c0.146,1.271,0.434,2.307,0.854,3.113
			c0.435,0.799,0.907,1.438,1.442,1.893c0.531,0.453,1.059,0.767,1.589,0.929c0.54,0.166,1.026,0.243,1.447,0.243
			c0.745,0,1.464-0.073,2.125-0.211c0.686-0.146,1.284-0.301,1.813-0.49c0.53-0.158,1.041-0.354,1.527-0.527
			c0.479-0.17,0.94-0.259,1.407-0.259C890.901,256.656,891.339,256.777,891.72,257.024z M883.526,241.737
			c-0.396,0.032-0.852,0.125-1.387,0.296c-0.53,0.154-1.054,0.45-1.568,0.871c-0.52,0.442-0.993,1.03-1.414,1.813
			c-0.422,0.787-0.73,1.789-0.904,2.988c0.567,0.183,1.388,0.35,2.424,0.506c1.046,0.164,2.093,0.184,3.15,0.082
			c1.033-0.109,1.954-0.405,2.765-0.908c0.79-0.498,1.229-1.342,1.307-2.51c0.072-0.879-0.275-1.642-1.042-2.295
			C886.102,241.957,884.99,241.677,883.526,241.737z"/>
		<path fill="#FFFFFF" d="M909.359,255.958c0.063-0.601-0.094-1.11-0.499-1.513c-0.413-0.413-0.993-0.807-1.771-1.184
			c-0.766-0.365-1.653-0.767-2.684-1.188c-1.029-0.426-2.112-0.998-3.252-1.703c-0.852-0.507-1.553-1.099-2.101-1.791
			c-0.555-0.689-0.957-1.432-1.199-2.238c-0.256-0.799-0.356-1.604-0.315-2.457c0.032-0.822,0.227-1.649,0.579-2.473
			c0.361-0.783,0.814-1.432,1.391-1.971c0.557-0.531,1.2-0.961,1.887-1.301c0.704-0.338,1.397-0.58,2.114-0.73
			c0.697-0.138,1.362-0.201,1.963-0.201h0.638c1.885,0.108,3.606,0.563,5.172,1.381c1.568,0.82,2.887,1.902,3.994,3.257l0.166,0.153
			l-0.166,0.219c-0.35,0.498-0.75,0.867-1.168,1.128c-0.386,0.229-0.831,0.364-1.343,0.364c-0.493,0-0.977-0.102-1.427-0.301
			c-0.471-0.197-0.965-0.396-1.505-0.607c-0.66-0.283-1.301-0.522-1.881-0.713c-0.588-0.198-1.185-0.305-1.783-0.305
			c-0.787,0-1.375,0.17-1.764,0.52c-0.39,0.332-0.62,0.726-0.689,1.188c-0.071,0.678,0.138,1.245,0.638,1.68
			c0.502,0.445,1.229,0.863,2.182,1.252c1.102,0.463,2.277,0.966,3.519,1.521c1.253,0.548,2.343,1.229,3.305,2.027
			c0.952,0.791,1.683,1.76,2.188,2.87c0.49,1.127,0.543,2.484,0.146,4.074c-0.166,0.645-0.467,1.306-0.893,1.994
			c-0.434,0.697-1.021,1.329-1.792,1.901c-0.767,0.567-1.687,1.032-2.769,1.401c-1.087,0.377-2.359,0.563-3.803,0.563
			c-0.288,0-0.517-0.017-0.701-0.053c-1.695-0.062-3.377-0.511-5.027-1.339c-1.654-0.813-3.027-1.893-4.131-3.242l-0.17-0.154
			l0.17-0.21c0.174-0.292,0.373-0.522,0.584-0.706c0.223-0.166,0.409-0.328,0.592-0.474c0.417-0.224,0.844-0.316,1.276-0.316
			c0.499,0,0.978,0.093,1.432,0.292c0.479,0.198,0.97,0.396,1.5,0.607c0.49,0.242,1.054,0.471,1.67,0.645
			c0.628,0.18,1.307,0.309,2.063,0.369c1.272,0,2.177-0.247,2.731-0.754C908.979,256.964,909.29,256.457,909.359,255.958z"/>
		<path fill="#FFFFFF" d="M931.575,255.958c0.073-0.601-0.103-1.11-0.507-1.513c-0.409-0.413-0.985-0.807-1.756-1.184
			c-0.763-0.365-1.666-0.767-2.699-1.188c-1.019-0.426-2.104-0.998-3.251-1.703c-0.853-0.507-1.545-1.099-2.093-1.791
			c-0.556-0.689-0.957-1.432-1.205-2.238c-0.254-0.799-0.352-1.604-0.319-2.457c0.033-0.822,0.228-1.649,0.593-2.473
			c0.345-0.783,0.814-1.432,1.378-1.971c0.576-0.531,1.2-0.961,1.897-1.301c0.688-0.338,1.391-0.58,2.1-0.73
			c0.714-0.138,1.366-0.201,1.975-0.201h0.638c1.889,0.108,3.6,0.563,5.169,1.381c1.563,0.82,2.891,1.902,4.001,3.257l0.158,0.153
			l-0.158,0.219c-0.36,0.498-0.754,0.867-1.181,1.128c-0.394,0.229-0.843,0.364-1.328,0.364c-0.499,0-0.985-0.102-1.433-0.301
			c-0.467-0.197-0.961-0.396-1.5-0.607c-0.682-0.283-1.31-0.522-1.885-0.713c-0.592-0.198-1.188-0.305-1.788-0.305
			c-0.773,0-1.378,0.17-1.768,0.52c-0.381,0.332-0.616,0.726-0.687,1.188c-0.071,0.678,0.146,1.245,0.642,1.68
			c0.486,0.445,1.217,0.863,2.188,1.252c1.095,0.463,2.263,0.966,3.515,1.521c1.24,0.548,2.332,1.229,3.306,2.027
			c0.948,0.791,1.674,1.76,2.185,2.87c0.495,1.127,0.544,2.484,0.158,4.074c-0.183,0.645-0.482,1.306-0.912,1.994
			c-0.422,0.697-1.021,1.329-1.784,1.901c-0.766,0.567-1.686,1.032-2.765,1.401c-1.087,0.377-2.355,0.563-3.814,0.563
			c-0.279,0-0.515-0.017-0.692-0.053c-1.703-0.062-3.381-0.511-5.035-1.339c-1.646-0.813-3.028-1.893-4.119-3.242l-0.17-0.154
			l0.17-0.21c0.158-0.292,0.373-0.522,0.58-0.706c0.211-0.166,0.401-0.328,0.588-0.474c0.438-0.224,0.847-0.316,1.276-0.316
			c0.491,0,0.98,0.093,1.436,0.292c0.467,0.198,0.953,0.396,1.488,0.607c0.502,0.242,1.063,0.471,1.682,0.645
			c0.629,0.18,1.303,0.309,2.049,0.369c1.275,0,2.196-0.247,2.752-0.754C931.189,256.964,931.503,256.457,931.575,255.958z"/>
	</g>
	<g>
		<path fill="#FFFFFF" d="M644.991,38.151c-47.488,0-85.998,38.501-85.998,85.995c0,47.493,38.51,86.002,85.998,86.002
			c47.51,0,86.007-38.51,86.007-86.002C730.998,76.653,692.501,38.151,644.991,38.151z M644.991,167.649
			c-24.013,0-43.491-19.483-43.491-43.503c0-24.024,19.479-43.496,43.491-43.496c24.028,0,43.508,19.472,43.508,43.496
			C688.499,148.166,669.021,167.649,644.991,167.649z"/>
	</g>
	<g>
		<polyline fill="#FFFFFF" points="617.303,131.678 605.152,125.751 602.972,127.912 608.829,134.682 		"/>
	</g>
	<g>
		<path fill="#FFFFFF" d="M678.024,113.066c0,0,8.59-1.512,8.262,2.583c0,0-0.271,2.801-5.858,5.591
			c0,0-51.193,16.925-52.346,17.006c0,0-13.532,0.251-18.413-2.234l24.795-8.501l-12.024-14.384l2.898-3.077l28.22,11.112
			L678.024,113.066z"/>
	</g>
	<g>
		<path fill="#FFFFFF" d="M40.588,45.996h46.719c11.732,0,22.492,1.301,32.286,3.928c9.547,2.538,17.359,6.937,23.412,13.22
			c5.898,6.122,8.846,14.299,8.846,24.527c0,7.772-1.941,14.53-5.825,20.278c-3.892,5.834-9.154,10.156-15.803,12.998v0.567
			c3.814,1.504,7.362,3.515,10.638,6.049c3.146,2.46,5.951,5.416,8.416,8.854c2.315,3.284,4.144,6.977,5.489,11.096
			c1.269,4.18,1.894,8.583,1.894,13.203c0,13.303-4.922,23.988-14.777,32.053c-9.932,8.141-24.953,12.215-45.044,12.215h-56.25
			L40.588,45.996L40.588,45.996z M81.493,77.143v32.149h10.301c6.357,0,11.14-1.447,14.343-4.362
			c3.215-2.761,4.824-6.791,4.824-12.097c0-5.607-2.015-9.625-6.049-12.102c-4.115-2.384-8.967-3.588-14.574-3.588H81.493z
			 M81.493,140.561v33.166h10.865c15.616,0,23.416-5.416,23.416-16.257c0-6.791-2.088-11.307-6.271-13.552
			c-4.103-2.242-10.018-3.357-17.708-3.357H81.493z"/>
	</g>
	<g>
		<path fill="#FFFFFF" d="M195.545,200.613c-10.147-5.38-18.223-12.738-24.202-22.074c-6.049-9.41-9.077-19.945-9.077-31.593
			c0-8.741,1.76-16.877,5.266-24.422c3.519-7.548,8.335-14.083,14.461-19.617c6.194-5.595,13.245-9.888,21.17-12.875
			c8.075-2.984,16.317-4.484,24.766-4.484c8.501,0,16.796,1.5,24.868,4.484c7.836,2.842,14.894,7.094,21.174,12.774
			c6.194,5.68,11.027,12.251,14.452,19.719c3.507,7.545,5.263,15.681,5.263,24.422c0,8.89-1.715,17.027-5.149,24.421
			c-3.438,7.471-8.287,14.088-14.566,19.823c-6.345,5.685-13.411,9.978-21.174,12.896c-7.84,3.063-16.123,4.595-24.868,4.595
			C216.496,208.681,205.709,205.988,195.545,200.613z M206.974,167.561c5.895,5.757,12.88,8.631,20.955,8.631
			c8.128,0,15.158-2.874,21.061-8.631c5.972-5.745,8.968-12.62,8.968-20.615c0-5.226-1.391-10.042-4.155-14.449
			c-2.765-4.411-6.458-7.926-11.088-10.532c-4.561-2.623-9.486-3.933-14.785-3.933c-5.157,0-10.054,1.31-14.691,3.933
			c-4.622,2.606-8.319,6.122-11.076,10.532c-2.781,4.407-4.151,9.223-4.151,14.449C198.01,154.94,200.998,161.815,206.974,167.561z"
			/>
	</g>
	<g>
		<path fill="#FFFFFF" d="M332.567,200.613c-10.155-5.38-18.231-12.738-24.198-22.074c-6.049-9.41-9.073-19.945-9.073-31.593
			c0-8.741,1.751-16.877,5.262-24.422c3.511-7.548,8.323-14.083,14.445-19.617c6.21-5.595,13.265-9.888,21.182-12.875
			c8.072-2.984,16.313-4.484,24.762-4.484c8.513,0,16.812,1.5,24.859,4.484c7.86,2.842,14.915,7.094,21.186,12.774
			c6.199,5.68,11.015,12.251,14.465,19.719c3.502,7.545,5.254,15.681,5.254,24.422c0,8.89-1.719,17.027-5.157,24.421
			c-3.438,7.471-8.286,14.088-14.562,19.823c-6.349,5.685-13.398,9.978-21.186,12.896c-7.829,3.063-16.123,4.595-24.859,4.595
			C353.519,208.681,342.727,205.988,332.567,200.613z M344,167.561c5.898,5.757,12.875,8.631,20.947,8.631
			c8.136,0,15.162-2.874,21.061-8.631c5.976-5.745,8.976-12.62,8.976-20.615c0-5.226-1.402-10.042-4.159-14.449
			c-2.765-4.411-6.458-7.926-11.088-10.532c-4.549-2.623-9.486-3.933-14.789-3.933c-5.153,0-10.042,1.31-14.68,3.933
			c-4.626,2.606-8.323,6.122-11.08,10.532c-2.769,4.407-4.159,9.223-4.159,14.449C335.028,154.94,338.021,161.815,344,167.561z"/>
	</g>
	<g>
		<path fill="#FFFFFF" d="M436.314,204.983V46.11l35.846-0.114v87.839h0.45l37.094-43.467h42.012l-41.453,49.188l48.729,65.428
			H514.28l-42.121-56.246v56.246L436.314,204.983L436.314,204.983z"/>
	</g>
	<g>
		<path fill="#FFFFFF" d="M768.48,119.962h-23.643l8.055-30.697h15.588V45.128l35.732,0.215v43.921h23.752l-7.949,30.697h-15.803
			v37.986c0,10.155,6.346,15.239,19.05,15.239c4.104,0,7.236-0.481,9.409-1.468v34.576c-1.869,0.297-13.576,0.451-15.355,0.451
			c-10.688,0-20.02-0.666-27.105-4.1c-7.171-3.436-12.592-8.627-16.248-15.576c-3.661-6.863-5.48-15.645-5.48-26.326v-40.782H768.48
			z"/>
	</g>
	<g>
		<path fill="#FFFFFF" d="M895.018,124.458c-1.81-1.212-4.137-1.897-7.022-2.039h-1.945c-8.806,0.361-13.191,6.478-13.191,18.369
			v65.5h-34.58v-65.5c0-31.496,15.916-48.028,47.771-49.601h1.945c2.384,0.057,4.72,0.275,7.021,0.645L895.018,124.458
			L895.018,124.458z"/>
	</g>
	<g>
		<path fill="#FFFFFF" d="M937.121,69.303c-1.743,2.935-4.123,5.315-7.131,7.143c-3.021,1.829-6.36,2.737-10.019,2.737
			c-3.647,0-6.939-0.859-9.884-2.611c-3.008-1.829-5.396-4.245-7.131-7.269c-1.82-3.166-2.74-6.555-2.74-10.127
			c0-3.645,0.863-6.981,2.606-9.997c1.917-3.089,4.346-5.518,7.265-7.253c2.943-1.751,6.235-2.623,9.884-2.623
			c3.657,0,6.997,0.872,10.019,2.623c2.923,1.735,5.303,4.164,7.131,7.253c1.751,3.016,2.627,6.353,2.627,9.997
			C939.748,62.982,938.872,66.364,937.121,69.303z M938.477,91.681V206.52h-35.75V91.787L938.477,91.681z"/>
	</g>
	<g>
		<path fill="#FFFFFF" d="M944.609,146.492c0.085-11.416,3.108-21.689,9.08-30.811c5.979-9.325,14.039-16.65,24.198-21.949
			c10.163-5.38,20.955-8.067,32.38-8.067c8.744,0,17.035,1.528,24.875,4.585c7.771,2.842,14.822,7.135,21.171,12.884
			c6.284,5.757,11.12,12.333,14.569,19.723c3.435,7.395,5.153,15.539,5.153,24.426c0,8.667-1.76,16.771-5.259,24.316
			c-3.438,7.463-8.25,13.998-14.465,19.593c-6.189,5.685-13.261,9.978-21.171,12.896c-7.985,2.912-16.288,4.367-24.875,4.367
			c-8.444,0-16.689-1.455-24.754-4.367l-2.587-1.117l-2.565-1.133v58.752l-35.753-0.102V146.492H944.609z M980.361,147.282
			c0,5.295,1.379,10.083,4.146,14.334c2.766,4.416,6.45,7.922,11.084,10.536c4.553,2.615,9.449,3.929,14.676,3.929
			c5.229,0,10.159-1.313,14.793-3.929c4.625-2.614,8.322-6.12,11.097-10.536c2.757-4.334,4.139-9.113,4.139-14.334
			c0-7.922-2.983-14.785-8.959-20.615c-5.895-5.753-12.928-8.635-21.067-8.635c-8.063,0-15.05,2.882-20.951,8.635
			C983.354,132.416,980.361,139.292,980.361,147.282z"/>
	</g>
	<g>
		<path fill="#FFFFFF" d="M1075.274,187.263c1.657,0,3.26,0.422,4.76,1.285c1.447,0.9,2.615,2.072,3.522,3.52
			c0.903,1.438,1.329,2.991,1.329,4.698c0,2.83-0.896,5.187-2.771,7.05c-1.873,1.873-4.172,2.826-6.84,2.826
			c-1.761,0-3.413-0.418-4.856-1.281c-1.5-0.844-2.667-2.031-3.527-3.576c-0.847-1.543-1.279-3.263-1.279-5.019
			c0-1.761,0.434-3.315,1.35-4.755c0.893-1.5,2.08-2.676,3.555-3.463C1072.031,187.685,1073.616,187.263,1075.274,187.263z"/>
		<path fill="#FFFFFF" d="M1096.976,144.059c-1.642,0-3.085-0.373-4.427-1.167c-1.334-0.811-2.398-1.869-3.202-3.264
			c-0.799-1.443-1.213-2.992-1.213-4.536c0-1.658,0.357-3.15,1.16-4.492c0.854-1.39,1.921-2.457,3.255-3.255
			c1.342-0.786,2.785-1.18,4.427-1.18c1.658,0,3.158,0.394,4.488,1.18c1.342,0.799,2.412,1.934,3.219,3.255
			c0.8,1.342,1.177,2.834,1.177,4.492c0,1.715-0.377,3.207-1.177,4.536c-0.807,1.33-1.877,2.404-3.219,3.207
			C1100.134,143.633,1098.634,144.059,1096.976,144.059z M1105.798,150.574v54.733h-17.031v-54.681L1105.798,150.574z"/>
		<path fill="#FFFFFF" d="M1134.841,163.818c-4.322,0.154-6.507,3.207-6.507,9.073v32.313h-17.101v-32.313
			c0-15.535,7.86-23.704,23.606-24.507h0.961c15.754,0.803,23.61,8.972,23.61,24.507v32.313h-17.084v-32.313
			c0-5.866-2.188-8.919-6.526-9.073H1134.841z"/>
	</g>
</g>
</svg>
