<?xml version="1.0" encoding="utf-8"?>
<!-- Generator: Adobe Illustrator 16.0.0, SVG Export Plug-In . SVG Version: 6.00 Build 0)  -->
<!DOCTYPE svg PUBLIC "-//W3C//DTD SVG 1.1//EN" "http://www.w3.org/Graphics/SVG/1.1/DTD/svg11.dtd">
<svg version="1.1" id="Layer_1" xmlns="http://www.w3.org/2000/svg" xmlns:xlink="http://www.w3.org/1999/xlink" x="0px" y="0px"
	 width="1200px" height="301.37px" viewBox="0 0 1200 301.37" enable-background="new 0 0 1200 301.37" xml:space="preserve">
<g>
	<g>
		<path fill="#FFFFFF" d="M667.787,125.312c0,24.221-19.639,43.866-43.867,43.866c-24.225,0-43.862-19.646-43.862-43.866
			c0-24.217,19.638-43.863,43.862-43.863C648.148,81.449,667.787,101.095,667.787,125.312z"/>
		<g>
			<path fill="#BE1E2D" d="M631.259,251.884c0,1.003,0.008,1.823,0.023,2.455c0.02,0.645,0.039,1.147,0.082,1.511
				c0.031,0.41,0.063,0.706,0.094,0.913c-2.077,0-3.665-0.429-4.771-1.312c-1.108-0.874-1.658-2.314-1.658-4.325l0.094-24.353
				h-11.059c0-1.511,0.417-2.709,1.253-3.615c0.831-0.913,2.025-1.362,3.567-1.362h23.448c0,1.519-0.414,2.721-1.257,3.619
				c-0.848,0.905-2.034,1.358-3.576,1.358h-6.292L631.259,251.884z"/>
			<path fill="#BE1E2D" d="M644.339,244.639c0-2.256,0.324-4.079,0.983-5.508c0.648-1.437,1.495-2.545,2.529-3.353
				c1.055-0.813,2.214-1.343,3.502-1.628c1.296-0.293,2.58-0.43,3.853-0.43h2.463c0.16,0.707,0.211,1.354,0.098,1.96
				c-0.066,0.504-0.288,0.983-0.675,1.452c-0.387,0.479-1.016,0.765-1.886,0.858c-0.569,0.066-1.132,0.191-1.679,0.383
				c-0.55,0.18-1.054,0.508-1.486,0.948c-0.438,0.453-0.805,1.104-1.082,1.94c-0.281,0.839-0.438,1.963-0.438,3.376v7.284
				c0,1.011,0.02,1.826,0.027,2.439c0.016,0.625,0.051,1.12,0.078,1.487c0.035,0.41,0.066,0.706,0.102,0.913
				c-2.049,0-3.626-0.429-4.727-1.292c-1.104-0.854-1.663-2.283-1.663-4.294V244.639z"/>
			<path fill="#BE1E2D" d="M663.099,243.921c0.913-0.559,1.933-0.995,3.076-1.269c1.136-0.293,2.322-0.434,3.56-0.434
				c1.745,0,3.408,0.246,4.989,0.757c-0.109-1.042-0.316-1.963-0.656-2.767c-0.433-1.047-1.093-1.8-1.956-2.269
				c-0.339-0.168-0.71-0.289-1.085-0.375c-0.378-0.077-0.823-0.128-1.335-0.128h-0.546c-0.477,0.031-0.94,0.113-1.413,0.226
				c-0.469,0.125-0.93,0.27-1.409,0.434c-0.469,0.164-0.94,0.309-1.413,0.422c-0.473,0.129-0.926,0.176-1.358,0.176
				c-0.465,0-0.917-0.098-1.354-0.297c-0.402-0.234-0.754-0.625-1.062-1.155l-0.09-0.203l0.09-0.152
				c1.011-1.058,2.189-1.937,3.552-2.588c1.358-0.664,2.85-1.026,4.458-1.132c0.164-0.039,0.3-0.051,0.413-0.051h0.438
				c1.538,0,2.939,0.277,4.235,0.823c1.261,0.551,2.369,1.323,3.306,2.291c1.913,2.081,2.904,4.813,2.959,8.205v0.41
				c0,3.481-0.886,6.312-2.658,8.482c-0.87,1.077-1.912,1.951-3.138,2.631c-1.226,0.663-2.589,1.085-4.106,1.249
				c-0.188,0.035-0.391,0.043-0.598,0.043h-0.652c-0.698,0-1.443-0.055-2.217-0.172c-0.78-0.113-1.525-0.344-2.26-0.675
				c-0.781-0.297-1.479-0.695-2.123-1.188c-0.633-0.479-1.16-1.108-1.608-1.889c-0.629-0.968-0.964-2.151-0.999-3.568v-0.296
				c0-1.308,0.276-2.394,0.808-3.268C661.416,245.322,662.135,244.564,663.099,243.921 M673.514,246.337
				c-0.43-0.066-0.93-0.133-1.479-0.195c-0.559-0.066-1.124-0.102-1.687-0.102c-0.473,0-0.922,0.027-1.354,0.082
				c-0.441,0.043-0.835,0.145-1.218,0.27c-0.836,0.277-1.46,0.69-1.901,1.257c-0.172,0.207-0.304,0.434-0.405,0.683
				c-0.098,0.254-0.176,0.531-0.195,0.836c-0.035,0.094-0.055,0.25-0.055,0.449c0,0.339,0.055,0.687,0.152,1.077
				c0.098,0.39,0.296,0.753,0.601,1.085c0.27,0.332,0.672,0.612,1.183,0.851c0.508,0.234,1.218,0.352,2.093,0.352
				c0.261,0,0.456-0.016,0.601-0.047c0.949-0.035,1.769-0.305,2.463-0.808c0.336-0.203,0.613-0.445,0.852-0.73
				s0.453-0.593,0.601-0.921c0.367-0.641,0.621-1.3,0.762-1.972c0.133-0.667,0.199-1.288,0.199-1.85c-0.027,0-0.051,0-0.066-0.035
				c-0.027-0.016-0.059-0.02-0.078-0.02c-0.133-0.031-0.297-0.074-0.465-0.098C673.958,246.47,673.751,246.415,673.514,246.337"/>
			<path fill="#BE1E2D" d="M697.563,254.737c-0.609,1.112-1.308,1.869-2.116,2.271c-0.796,0.402-1.565,0.633-2.268,0.707
				c-0.827,0.05-1.675-0.074-2.51-0.402c-0.27-0.609-0.637-1.456-1.073-2.541c-0.469-1.089-0.973-2.308-1.507-3.646
				c-0.563-1.343-1.159-2.752-1.78-4.234c-0.613-1.472-1.206-2.881-1.761-4.239c-0.534-1.366-1.042-2.596-1.503-3.701
				c-0.448-1.112-0.796-1.963-1.03-2.568c-0.148-0.304-0.265-0.604-0.397-0.897c-0.141-0.305-0.25-0.586-0.355-0.858
				c-0.129-0.297-0.25-0.605-0.348-0.906c0.999-0.233,1.955-0.315,2.873-0.253c0.761,0.062,1.538,0.296,2.338,0.683
				c0.777,0.375,1.401,1.112,1.874,2.186c0.148,0.375,0.339,0.855,0.569,1.479c0.258,0.621,0.523,1.304,0.809,2.038
				c0.301,0.737,0.589,1.515,0.909,2.314c0.32,0.808,0.628,1.616,0.937,2.42c0.703,1.839,1.464,3.841,2.312,5.984
				c0.8-2.144,1.581-4.146,2.318-5.984c0.285-0.804,0.612-1.612,0.96-2.42c0.34-0.8,0.637-1.577,0.926-2.314
				c0.276-0.734,0.542-1.417,0.792-2.038c0.215-0.624,0.414-1.104,0.581-1.479c0.441-1.073,1.066-1.811,1.874-2.186
				c0.804-0.387,1.581-0.621,2.358-0.683c0.897-0.063,1.861,0.02,2.86,0.253c-0.129,0.27-0.261,0.551-0.39,0.855
				c-0.109,0.266-0.219,0.565-0.352,0.882c-0.137,0.309-0.258,0.621-0.359,0.925c-0.242,0.629-0.559,1.472-0.948,2.491
				c-0.41,1.026-0.835,2.123-1.284,3.321c-0.453,1.194-0.949,2.412-1.464,3.669c-0.523,1.257-1.019,2.467-1.472,3.627
				c-0.473,1.155-0.93,2.189-1.351,3.114C698.179,253.531,697.832,254.237,697.563,254.737"/>
			<path fill="#BE1E2D" d="M725.472,251.872c0.402,0.238,0.792,0.644,1.159,1.21l0.145,0.156l-0.145,0.152
				c-1.101,1.214-2.424,2.15-3.946,2.846c-1.522,0.679-3.173,1.015-4.945,1.015c-1.554,0-2.998-0.297-4.364-0.917
				c-1.351-0.625-2.553-1.483-3.596-2.585c-0.999-1.085-1.803-2.354-2.385-3.802c-0.581-1.468-0.886-3.032-0.886-4.703
				c0-1.687,0.266-3.252,0.792-4.704c0.516-1.472,1.27-2.736,2.222-3.856c0.979-1.081,2.174-1.92,3.556-2.564
				c1.394-0.632,2.943-0.952,4.661-0.952c0.921,0,1.971,0.141,3.075,0.421c1.145,0.293,2.187,0.746,3.15,1.362
				c0.972,0.629,1.784,1.433,2.428,2.444c0.625,1.003,0.938,2.201,0.938,3.618c0,1.378-0.328,2.49-1.039,3.349
				c-0.702,0.852-1.553,1.526-2.529,2.007c-0.976,0.484-1.994,0.831-3.092,1.007c-1.089,0.18-2.029,0.273-2.837,0.273
				c-1.237,0-2.335-0.07-3.252-0.223c-0.917-0.145-1.55-0.266-1.874-0.332c0.125,1.211,0.395,2.202,0.793,2.943
				c0.406,0.766,0.866,1.351,1.362,1.796c0.503,0.43,0.999,0.726,1.522,0.874c0.495,0.148,0.94,0.227,1.354,0.227
				c0.694,0,1.366-0.07,2.006-0.199c0.641-0.133,1.214-0.285,1.714-0.456c0.5-0.168,0.968-0.332,1.425-0.5
				c0.46-0.172,0.89-0.258,1.339-0.258C724.695,251.521,725.101,251.634,725.472,251.872 M717.739,237.438
				c-0.383,0.031-0.805,0.128-1.308,0.28c-0.516,0.152-1,0.426-1.495,0.824c-0.48,0.409-0.921,0.979-1.331,1.717
				c-0.395,0.738-0.684,1.675-0.855,2.814c0.543,0.164,1.301,0.336,2.284,0.48c0.995,0.148,1.982,0.176,2.97,0.066
				c1-0.094,1.851-0.383,2.615-0.843c0.762-0.469,1.172-1.261,1.238-2.362c0.066-0.847-0.266-1.561-0.98-2.174
				C720.159,237.644,719.105,237.379,717.739,237.438"/>
			<path fill="#BE1E2D" d="M741.429,252.228c0.066,0.878,0,1.662-0.191,2.377c-0.175,0.585-0.526,1.171-1.019,1.729
				c-0.504,0.542-1.288,0.854-2.369,0.917c-1.043,0.113-1.94-0.004-2.721-0.32c-0.77-0.309-1.413-0.761-1.94-1.323
				c-0.507-0.577-0.89-1.245-1.151-2.025c-0.258-0.758-0.367-1.569-0.367-2.405v-24.505c-0.043-1.004-0.063-1.812-0.078-2.44
				c-0.039-0.612-0.047-1.104-0.074-1.472c-0.031-0.409-0.07-0.722-0.094-0.964c2.069,0,3.654,0.438,4.759,1.304
				c1.12,0.879,1.667,2.3,1.667,4.29v23.183c0,0.8,0.152,1.378,0.465,1.729c0.284,0.358,0.644,0.562,1.046,0.632
				c0.405,0.063,0.808,0.027,1.206-0.129C740.969,252.66,741.261,252.465,741.429,252.228"/>
			<path fill="#BE1E2D" d="M763.003,251.884c0,1.003,0.016,1.823,0.031,2.455c0,0.645,0.035,1.147,0.066,1.511
				c0.043,0.41,0.063,0.706,0.098,0.913c-2.077,0-3.661-0.429-4.755-1.312c-1.089-0.874-1.631-2.295-1.631-4.274l0.047-17.861
				c0-1.671,0.254-3.24,0.729-4.673c0.496-1.444,1.214-2.721,2.198-3.825c0.933-1.104,2.076-1.976,3.411-2.588
				c1.358-0.629,2.865-0.94,4.579-0.94c1.007,0,1.869,0.167,2.572,0.507c0.769,0.301,1.373,0.805,1.811,1.519
				c0.266,0.535,0.402,1.062,0.402,1.604c0,0.371-0.043,0.726-0.164,1.054l-0.094,0.301l-0.246-0.094
				c-0.464-0.164-1.015-0.316-1.646-0.43c-0.613-0.121-1.305-0.18-2.077-0.18c-0.285,0-0.612,0.031-1.015,0.098
				c-0.395,0.059-0.836,0.219-1.296,0.453c-0.484,0.242-0.917,0.559-1.331,0.983c-0.418,0.422-0.781,0.984-1.085,1.683
				c-0.199,0.473-0.363,1.019-0.477,1.663c-0.113,0.636-0.191,1.358-0.191,2.162v0.555h6.8c0,1.503-0.418,2.713-1.245,3.618
				c-0.854,0.905-2.042,1.358-3.575,1.358h-1.979L763.003,251.884z"/>
			<path fill="#BE1E2D" d="M789.569,236.738c1.03,1.077,1.839,2.33,2.437,3.802c0.577,1.452,0.866,3.021,0.866,4.692
				c0,1.683-0.258,3.247-0.8,4.715c-0.531,1.448-1.281,2.717-2.257,3.79c-0.964,1.113-2.166,1.979-3.548,2.616
				c-1.382,0.636-2.939,0.96-4.653,0.96c-1.55,0-2.989-0.324-4.356-0.96c-1.35-0.637-2.553-1.503-3.587-2.616
				c-1.015-1.073-1.8-2.342-2.389-3.79c-0.593-1.468-0.87-3.032-0.87-4.715c0-1.671,0.25-3.24,0.765-4.692
				c0.512-1.472,1.261-2.725,2.248-3.802c0.953-1.104,2.155-1.971,3.537-2.619c1.378-0.632,2.946-0.952,4.652-0.952
				c1.573,0,3.049,0.32,4.407,0.952C787.376,234.768,788.555,235.634,789.569,236.738 M781.614,252.98
				c0.434,0,0.944-0.094,1.538-0.301c0.57-0.199,1.147-0.581,1.671-1.159c0.554-0.554,1.011-1.358,1.362-2.354
				c0.367-1.011,0.563-2.322,0.563-3.935s-0.195-2.916-0.563-3.946c-0.352-1.02-0.809-1.812-1.362-2.362
				c-0.523-0.55-1.101-0.933-1.671-1.12c-0.594-0.211-1.104-0.308-1.538-0.308c-0.44,0-0.94,0.097-1.53,0.308
				c-0.577,0.188-1.151,0.57-1.689,1.12c-0.535,0.551-0.988,1.343-1.354,2.362c-0.371,1.03-0.559,2.334-0.559,3.946
				s0.188,2.924,0.559,3.935c0.366,0.995,0.819,1.8,1.354,2.354c0.538,0.578,1.112,0.96,1.689,1.159
				C780.674,252.887,781.174,252.98,781.614,252.98"/>
			<path fill="#BE1E2D" d="M796.65,244.639c0-2.256,0.328-4.079,0.992-5.508c0.64-1.437,1.494-2.545,2.541-3.353
				c1.03-0.813,2.205-1.343,3.489-1.628c1.288-0.293,2.576-0.43,3.841-0.43h2.471c0.164,0.707,0.199,1.354,0.109,1.96
				c-0.066,0.504-0.305,0.983-0.694,1.452c-0.367,0.479-1.019,0.765-1.886,0.858c-0.566,0.066-1.14,0.191-1.671,0.383
				c-0.55,0.18-1.058,0.508-1.487,0.948c-0.44,0.453-0.808,1.104-1.081,1.94c-0.288,0.839-0.433,1.963-0.433,3.376v7.284
				c0,1.011,0,1.826,0.016,2.439c0.031,0.625,0.047,1.12,0.09,1.487c0.02,0.41,0.066,0.706,0.101,0.913
				c-2.053,0-3.634-0.429-4.738-1.292c-1.104-0.854-1.659-2.283-1.659-4.294V244.639z"/>
			<path fill="#BE1E2D" d="M834.533,252.228c0.074,0.878,0,1.662-0.195,2.377c-0.176,0.585-0.512,1.171-1.007,1.729
				c-0.523,0.542-1.3,0.854-2.361,0.917c-1.05,0.113-1.952-0.004-2.725-0.32c-0.773-0.309-1.405-0.761-1.944-1.323
				c-0.512-0.577-0.894-1.245-1.151-2.025c-0.258-0.758-0.383-1.569-0.383-2.405v-24.505c-0.023-1.004-0.055-1.812-0.07-2.44
				c-0.012-0.612-0.039-1.104-0.078-1.472c-0.027-0.409-0.065-0.722-0.097-0.964c2.076,0,3.673,0.438,4.777,1.304
				c1.104,0.879,1.671,2.3,1.671,4.29v23.183c0,0.8,0.14,1.378,0.448,1.729c0.289,0.358,0.648,0.562,1.055,0.632
				c0.394,0.063,0.808,0.027,1.21-0.129C834.084,252.66,834.369,252.465,834.533,252.228"/>
			<path fill="#BE1E2D" d="M856.822,251.872c0.394,0.238,0.784,0.644,1.158,1.21l0.145,0.156l-0.145,0.152
				c-1.131,1.214-2.424,2.15-3.957,2.846c-1.526,0.679-3.178,1.015-4.966,1.015c-1.53,0-2.981-0.297-4.333-0.917
				c-1.35-0.625-2.564-1.483-3.599-2.585c-0.995-1.085-1.808-2.354-2.385-3.802c-0.605-1.468-0.89-3.032-0.89-4.703
				c0-1.687,0.253-3.252,0.78-4.704c0.534-1.472,1.272-2.736,2.24-3.856c0.979-1.081,2.147-1.92,3.545-2.564
				c1.394-0.632,2.946-0.952,4.641-0.952c0.944,0,1.995,0.141,3.1,0.421c1.128,0.293,2.178,0.746,3.146,1.362
				c0.973,0.629,1.772,1.433,2.421,2.444c0.647,1.003,0.964,2.201,0.964,3.618c0,1.378-0.367,2.49-1.058,3.349
				c-0.714,0.852-1.554,1.526-2.525,2.007c-0.968,0.484-2.007,0.831-3.1,1.007c-1.077,0.18-2.026,0.273-2.838,0.273
				c-1.241,0-2.314-0.07-3.239-0.223c-0.926-0.145-1.55-0.266-1.882-0.332c0.129,1.211,0.402,2.202,0.788,2.943
				c0.418,0.766,0.871,1.351,1.366,1.796c0.504,0.43,1.015,0.726,1.511,0.874s0.957,0.227,1.347,0.227
				c0.719,0,1.394-0.07,2.034-0.199c0.624-0.133,1.202-0.285,1.709-0.456c0.508-0.168,0.973-0.332,1.429-0.5
				c0.453-0.172,0.887-0.258,1.331-0.258C856.025,251.521,856.443,251.634,856.822,251.872 M849.058,237.438
				c-0.358,0.031-0.804,0.128-1.296,0.28c-0.496,0.152-0.995,0.426-1.483,0.824c-0.491,0.409-0.929,0.979-1.327,1.717
				c-0.414,0.738-0.69,1.675-0.862,2.814c0.534,0.164,1.304,0.336,2.279,0.48c1.003,0.148,1.987,0.176,2.975,0.066
				c0.995-0.094,1.866-0.383,2.611-0.843c0.757-0.469,1.175-1.261,1.241-2.362c0.066-0.847-0.262-1.561-0.979-2.174
				C851.502,237.644,850.451,237.379,849.058,237.438"/>
			<path fill="#BE1E2D" d="M873.466,250.873c0.059-0.574-0.105-1.043-0.479-1.437c-0.379-0.383-0.93-0.758-1.659-1.105
				c-0.719-0.354-1.569-0.718-2.542-1.132c-0.964-0.401-1.994-0.933-3.06-1.607c-0.812-0.473-1.476-1.027-1.995-1.679
				c-0.519-0.66-0.89-1.354-1.132-2.124c-0.23-0.753-0.331-1.522-0.308-2.314c0.038-0.784,0.237-1.565,0.565-2.338
				c0.328-0.734,0.765-1.358,1.312-1.858c0.527-0.503,1.12-0.921,1.784-1.237c0.644-0.316,1.304-0.538,1.986-0.679
				c0.668-0.129,1.28-0.195,1.862-0.195h0.586c1.783,0.105,3.415,0.534,4.895,1.312c1.472,0.765,2.736,1.799,3.774,3.061
				l0.148,0.151l-0.148,0.207c-0.348,0.473-0.714,0.816-1.104,1.054c-0.375,0.234-0.793,0.348-1.269,0.348
				c-0.477,0-0.917-0.09-1.362-0.266c-0.434-0.19-0.906-0.382-1.409-0.589c-0.637-0.266-1.214-0.484-1.784-0.672
				c-0.547-0.188-1.104-0.284-1.679-0.284c-0.741,0-1.296,0.163-1.663,0.479c-0.358,0.316-0.589,0.695-0.644,1.128
				c-0.078,0.645,0.125,1.171,0.589,1.593c0.477,0.418,1.16,0.809,2.069,1.183c1.042,0.438,2.147,0.918,3.317,1.421
				c1.18,0.527,2.218,1.159,3.119,1.921c0.91,0.757,1.604,1.663,2.069,2.713c0.468,1.062,0.507,2.35,0.148,3.853
				c-0.172,0.608-0.453,1.233-0.859,1.882c-0.405,0.651-0.964,1.249-1.679,1.791c-0.733,0.531-1.604,0.979-2.615,1.331
				c-1.03,0.344-2.229,0.531-3.599,0.531c-0.27,0-0.483-0.02-0.655-0.063c-1.601-0.063-3.201-0.48-4.759-1.241
				c-1.558-0.781-2.85-1.796-3.88-3.076l-0.164-0.16l0.164-0.195c0.156-0.265,0.348-0.479,0.539-0.655
				c0.203-0.16,0.382-0.316,0.558-0.449c0.402-0.199,0.789-0.297,1.202-0.297c0.477,0,0.918,0.098,1.354,0.273
				c0.441,0.184,0.91,0.383,1.417,0.57c0.465,0.242,0.988,0.444,1.585,0.608c0.582,0.172,1.233,0.293,1.933,0.352
				c1.21,0,2.076-0.227,2.588-0.702C873.103,251.806,873.411,251.337,873.466,250.873"/>
			<path fill="#BE1E2D" d="M894.432,250.873c0.078-0.574-0.078-1.043-0.473-1.437c-0.379-0.383-0.938-0.758-1.663-1.105
				c-0.71-0.354-1.562-0.718-2.529-1.132c-0.976-0.401-2.007-0.933-3.068-1.607c-0.812-0.473-1.464-1.027-1.982-1.679
				c-0.527-0.66-0.897-1.354-1.147-2.124c-0.23-0.753-0.328-1.522-0.293-2.314c0.035-0.784,0.219-1.565,0.543-2.338
				c0.343-0.734,0.784-1.358,1.318-1.858c0.531-0.503,1.137-0.921,1.784-1.237c0.655-0.316,1.319-0.538,1.979-0.679
				c0.683-0.129,1.296-0.195,1.873-0.195h0.602c1.775,0.105,3.403,0.534,4.883,1.312c1.476,0.765,2.729,1.799,3.771,3.061
				l0.152,0.151l-0.152,0.207c-0.343,0.473-0.714,0.816-1.112,1.054c-0.359,0.234-0.788,0.348-1.241,0.348
				c-0.487,0-0.933-0.09-1.374-0.266c-0.438-0.19-0.901-0.382-1.401-0.589c-0.644-0.266-1.229-0.484-1.792-0.672
				c-0.558-0.188-1.112-0.284-1.682-0.284c-0.742,0-1.292,0.163-1.659,0.479c-0.371,0.316-0.597,0.695-0.663,1.128
				c-0.051,0.645,0.145,1.171,0.612,1.593c0.48,0.418,1.151,0.809,2.062,1.183c1.026,0.438,2.139,0.918,3.325,1.421
				c1.163,0.527,2.21,1.159,3.111,1.921c0.909,0.757,1.597,1.663,2.068,2.713c0.469,1.062,0.527,2.35,0.148,3.853
				c-0.164,0.608-0.448,1.233-0.862,1.882c-0.383,0.651-0.949,1.249-1.679,1.791c-0.714,0.531-1.601,0.979-2.627,1.331
				c-1.007,0.344-2.206,0.531-3.583,0.531c-0.27,0-0.484-0.02-0.66-0.063c-1.597-0.063-3.197-0.48-4.746-1.241
				c-1.558-0.781-2.873-1.796-3.904-3.076l-0.16-0.16l0.16-0.195c0.168-0.265,0.363-0.479,0.555-0.655
				c0.207-0.16,0.387-0.316,0.547-0.449c0.397-0.199,0.804-0.297,1.21-0.297c0.456,0,0.925,0.098,1.362,0.273
				c0.434,0.184,0.901,0.383,1.397,0.57c0.479,0.242,1.003,0.444,1.601,0.608c0.589,0.172,1.229,0.293,1.928,0.352
				c1.214,0,2.08-0.227,2.592-0.702C894.076,251.806,894.373,251.337,894.432,250.873"/>
			<path fill="#BE1E2D" d="M623.838,45.198c-44.857,0-81.214,36.353-81.214,81.203c0,44.858,36.356,81.215,81.214,81.215
				c44.851,0,81.203-36.356,81.203-81.215C705.041,81.55,668.688,45.198,623.838,45.198 M623.838,167.48
				c-22.69,0-41.079-18.39-41.079-41.08c0-22.679,18.389-41.068,41.079-41.068c22.684,0,41.064,18.389,41.064,41.068
				C664.902,149.091,646.521,167.48,623.838,167.48"/>
			<polyline fill="#BE1E2D" points="597.682,133.512 586.193,127.923 584.16,129.957 589.691,136.358 			"/>
			<path fill="#BE1E2D" d="M655.026,115.936c0,0,8.096-1.425,7.8,2.439c0,0-0.254,2.639-5.543,5.277c0,0-48.336,15.988-49.43,16.051
				c0,0-12.768,0.246-17.39-2.092l23.413-8.029l-11.344-13.584l2.74-2.916l26.637,10.508L655.026,115.936z"/>
			<path fill="#BE1E2D" d="M53.107,52.614H97.22c11.078,0,21.234,1.229,30.478,3.696c9.021,2.397,16.394,6.558,22.104,12.487
				c5.566,5.785,8.357,13.498,8.357,23.17c0,7.327-1.831,13.717-5.504,19.146c-3.669,5.5-8.634,9.594-14.911,12.272v0.535
				c3.599,1.409,6.948,3.302,10.056,5.707c2.951,2.327,5.605,5.114,7.932,8.357c2.182,3.107,3.903,6.601,5.184,10.477
				c1.198,3.947,1.804,8.108,1.804,12.487c0,12.554-4.657,22.637-13.975,30.248c-9.376,7.689-23.557,11.538-42.532,11.538H53.107
				V52.614z M91.724,82.022v30.357h9.735c5.992,0,10.512-1.378,13.545-4.126c3.029-2.6,4.54-6.406,4.54-11.421
				c0-5.289-1.897-9.099-5.711-11.429c-3.88-2.256-8.463-3.38-13.748-3.38H91.724z M91.724,141.897v31.321h10.262
				c14.731,0,22.117-5.117,22.117-15.348c0-6.414-1.979-10.68-5.921-12.796c-3.884-2.112-9.458-3.177-16.723-3.177H91.724z"/>
			<path fill="#BE1E2D" d="M199.419,198.609c-9.591-5.078-17.207-12.022-22.847-20.84c-5.715-8.893-8.568-18.842-8.568-29.838
				c0-8.26,1.655-15.941,4.973-23.065c3.318-7.124,7.857-13.287,13.646-18.514c5.851-5.289,12.518-9.345,19.993-12.167
				c7.62-2.818,15.403-4.231,23.386-4.231c8.041,0,15.867,1.413,23.486,4.231c7.401,2.686,14.064,6.702,19.986,12.065
				c5.855,5.359,10.415,11.566,13.654,18.615c3.314,7.124,4.974,14.806,4.974,23.065c0,8.389-1.624,16.082-4.872,23.073
				c-3.239,7.046-7.822,13.287-13.755,18.717c-5.992,5.355-12.659,9.419-19.986,12.163c-7.412,2.9-15.247,4.345-23.486,4.345
				C219.21,206.229,209.014,203.688,199.419,198.609 M210.212,167.402c5.57,5.43,12.175,8.135,19.791,8.135
				c7.686,0,14.313-2.705,19.892-8.135c5.629-5.438,8.451-11.918,8.451-19.471c0-4.934-1.3-9.478-3.907-13.654
				c-2.608-4.157-6.094-7.475-10.477-9.938c-4.302-2.467-8.955-3.696-13.958-3.696c-4.879,0-9.489,1.229-13.865,3.696
				c-4.375,2.463-7.865,5.781-10.473,9.938c-2.611,4.177-3.919,8.72-3.919,13.654C201.746,155.484,204.568,161.965,210.212,167.402"
				/>
			<path fill="#BE1E2D" d="M328.814,198.609c-9.599-5.078-17.214-12.022-22.847-20.84c-5.719-8.893-8.576-18.842-8.576-29.838
				c0-8.26,1.659-15.941,4.969-23.065c3.31-7.124,7.857-13.287,13.646-18.514c5.859-5.289,12.519-9.345,20.005-12.167
				c7.608-2.818,15.403-4.231,23.374-4.231c8.041,0,15.867,1.413,23.482,4.231c7.413,2.686,14.068,6.702,20.001,12.065
				c5.851,5.359,10.403,11.566,13.642,18.615c3.311,7.124,4.973,14.806,4.973,23.065c0,8.389-1.616,16.082-4.868,23.073
				c-3.243,7.046-7.838,13.287-13.748,18.717c-5.996,5.355-12.667,9.419-20.001,12.163c-7.404,2.9-15.227,4.345-23.482,4.345
				C348.597,206.229,338.404,203.688,328.814,198.609 M339.595,167.402c5.574,5.43,12.178,8.135,19.791,8.135
				c7.686,0,14.317-2.705,19.884-8.135c5.648-5.438,8.471-11.918,8.471-19.471c0-4.934-1.312-9.478-3.923-13.654
				c-2.604-4.157-6.097-7.475-10.469-9.938c-4.305-2.467-8.958-3.696-13.962-3.696c-4.872,0-9.489,1.229-13.857,3.696
				c-4.372,2.463-7.869,5.781-10.473,9.938c-2.604,4.177-3.919,8.72-3.919,13.654C331.137,155.484,333.958,161.965,339.595,167.402"
				/>
			<polygon fill="#BE1E2D" points="426.771,202.735 426.771,52.715 460.632,52.614 460.632,135.55 461.05,135.55 496.067,94.505 
				535.75,94.505 496.587,140.948 542.62,202.735 500.412,202.735 460.632,149.622 460.632,202.735 			"/>
			<path fill="#BE1E2D" d="M740.43,122.454h-22.324l7.62-28.983h14.704V51.783l33.749,0.211v41.478h22.425l-7.502,28.983h-14.923
				v35.864c0,9.591,5.995,14.385,17.983,14.385c3.879,0,6.842-0.461,8.884-1.374v32.651c-1.765,0.281-12.808,0.43-14.501,0.43
				c-10.091,0-18.881-0.64-25.588-3.884c-6.779-3.24-11.881-8.143-15.348-14.696c-3.451-6.495-5.18-14.774-5.18-24.865V122.454z"/>
			<path fill="#BE1E2D" d="M859.921,126.701c-1.706-1.148-3.915-1.796-6.636-1.94h-1.83c-8.307,0.352-12.452,6.125-12.452,17.355
				v61.853h-32.672v-61.853c0-29.736,15.052-45.35,45.124-46.853h1.83c2.244,0.07,4.454,0.277,6.636,0.617V126.701z"/>
			<path fill="#BE1E2D" d="M899.686,74.618c-1.644,2.768-3.9,5.02-6.741,6.741c-2.861,1.737-6.004,2.588-9.45,2.588
				c-3.455,0-6.559-0.824-9.326-2.471c-2.86-1.726-5.109-4.013-6.756-6.858c-1.718-3.006-2.58-6.191-2.58-9.552
				c0-3.455,0.831-6.601,2.467-9.446c1.807-2.924,4.087-5.219,6.869-6.862c2.768-1.639,5.871-2.463,9.326-2.463
				c3.446,0,6.589,0.824,9.45,2.463c2.763,1.644,5.012,3.938,6.741,6.862c1.65,2.846,2.479,5.992,2.479,9.446
				C902.164,68.653,901.336,71.834,899.686,74.618 M900.942,95.743v108.44h-33.741V95.852L900.942,95.743z"/>
			<path fill="#BE1E2D" d="M906.758,147.502c0.063-10.789,2.924-20.481,8.572-29.084c5.637-8.814,13.248-15.731,22.851-20.739
				c9.587-5.075,19.778-7.62,30.575-7.62c8.248,0,16.082,1.444,23.487,4.345c7.331,2.674,13.997,6.729,19.993,12.163
				c5.926,5.422,10.508,11.636,13.76,18.624c3.225,6.975,4.859,14.673,4.859,23.054c0,8.186-1.658,15.836-4.965,22.956
				c-3.256,7.05-7.795,13.229-13.654,18.521c-5.859,5.355-12.519,9.419-19.993,12.163c-7.554,2.756-15.38,4.126-23.487,4.126
				c-7.975,0-15.762-1.37-23.381-4.126l-2.439-1.054l-2.437-1.062v55.479l-33.741-0.109V147.502z M940.499,148.244
				c0,5.016,1.319,9.524,3.923,13.549c2.596,4.165,6.102,7.475,10.474,9.938c4.294,2.479,8.923,3.709,13.86,3.709
				c4.931,0,9.591-1.229,13.959-3.709c4.376-2.463,7.869-5.772,10.469-9.938c2.619-4.099,3.923-8.607,3.923-13.549
				c0-7.471-2.817-13.967-8.466-19.467c-5.57-5.421-12.194-8.142-19.885-8.142c-7.619,0-14.22,2.721-19.786,8.142
				C943.321,134.211,940.499,140.695,940.499,148.244"/>
			
			
		</g>
	</g>
	<g>
		<path fill="#BE1E2D" d="M1020.132,191.114c0.886-1.432,2.027-2.539,3.426-3.323c1.432-0.818,2.947-1.228,4.55-1.228
			s3.119,0.409,4.551,1.228c1.397,0.853,2.522,1.978,3.375,3.374c0.852,1.364,1.277,2.863,1.277,4.5
			c0,2.728-0.887,4.977-2.658,6.749c-1.808,1.806-3.988,2.71-6.545,2.71c-1.704,0-3.255-0.409-4.652-1.228
			c-1.432-0.818-2.557-1.96-3.374-3.426c-0.818-1.499-1.228-3.101-1.228-4.806C1018.854,193.995,1019.279,192.479,1020.132,191.114z
			"/>
		<path fill="#BE1E2D" d="M1083.582,202.209c-1.091,0.479-1.892,0.802-2.403,0.972c-3.613,1.397-7.396,2.097-11.35,2.097
			c-5.216,0-10.142-1.211-14.776-3.631c-4.637-2.454-8.317-5.794-11.044-10.021c-2.761-4.295-4.142-9.084-4.142-14.367
			c0-3.988,0.801-7.703,2.403-11.146c1.602-3.408,3.8-6.374,6.596-8.896c2.761-2.522,5.964-4.448,9.612-5.777
			c3.646-1.397,7.43-2.096,11.351-2.096c3.886,0,7.669,0.682,11.35,2.045c3.682,1.364,6.886,3.307,9.612,5.829
			c2.863,2.591,5.079,5.557,6.647,8.896c1.602,3.443,2.402,7.158,2.402,11.146l-0.051,26.638l-16.208-0.153V202.209z
			 M1058.069,170.663c-1.262,2.012-1.892,4.21-1.892,6.596c0,3.613,1.362,6.731,4.09,9.356c2.692,2.591,5.88,3.886,9.562,3.886
			c3.714,0,6.919-1.295,9.611-3.886c2.727-2.625,4.091-5.743,4.091-9.356c0-2.386-0.631-4.584-1.892-6.596
			c-1.262-2.011-2.949-3.613-5.063-4.806c-2.079-1.159-4.329-1.739-6.748-1.739c-2.353,0-4.585,0.58-6.698,1.739
			C1061.017,167.05,1059.33,168.652,1058.069,170.663z"/>
		<path fill="#BE1E2D" d="M1157.565,166.164c1.534,3.444,2.301,7.125,2.301,11.043v0.461c0,0.171-0.018,0.357-0.051,0.562
			l-0.103,0.869h-6.34v0.103h-35.177c0.409,2.863,1.653,5.335,3.732,7.414c2.624,2.591,5.692,3.886,9.203,3.886
			c3.545,0,6.612-1.295,9.203-3.886l0.103-0.103l0.153-0.204l0.153-0.153l0.103-0.153l8.794,12.577
			c-2.523,2.045-5.079,3.597-7.67,4.652c-3.477,1.363-7.09,2.046-10.839,2.046c-5.079,0-9.8-1.211-14.163-3.631
			c-4.466-2.454-7.993-5.811-10.583-10.072c-2.659-4.26-3.988-9.05-3.988-14.367c0-3.987,0.767-7.669,2.301-11.043
			c1.534-3.408,3.646-6.374,6.34-8.896c2.727-2.59,5.795-4.55,9.203-5.88c3.511-1.363,7.141-2.045,10.891-2.045
			c3.749,0,7.362,0.682,10.839,2.045c3.442,1.33,6.527,3.272,9.255,5.829C1153.918,159.705,1156.031,162.687,1157.565,166.164z
			 M1131.132,164.118c-2.284,0-4.432,0.58-6.442,1.739c-1.227,0.75-2.421,1.807-3.579,3.17h20.043
			c-1.159-1.363-2.353-2.42-3.579-3.17C1135.563,164.698,1133.415,164.118,1131.132,164.118z"/>
	</g>
</g>
</svg>
