<svg width="202" height="51" viewBox="0 0 202 51" fill="none" xmlns="http://www.w3.org/2000/svg">
<path d="M112.457 21.0746C112.457 25.1735 109.151 28.498 105.072 28.498C100.995 28.498 97.689 25.1735 97.689 21.0746C97.689 16.9765 100.995 13.6518 105.072 13.6518C109.151 13.6518 112.457 16.9765 112.457 21.0746Z" fill="white"/>
<path d="M106.308 42.494C106.308 42.6637 106.309 42.8025 106.312 42.9095C106.315 43.0186 106.318 43.1037 106.325 43.1652C106.331 43.2346 106.336 43.2846 106.341 43.3197C105.992 43.3197 105.724 43.2471 105.538 43.0976C105.352 42.9497 105.259 42.7061 105.259 42.3657L105.275 38.2447H103.413C103.413 37.989 103.484 37.7863 103.624 37.6328C103.764 37.4783 103.965 37.4023 104.225 37.4023H108.172C108.172 37.6594 108.102 37.8628 107.96 38.0147C107.818 38.1681 107.618 38.2447 107.358 38.2447H106.299L106.308 42.494Z" fill="#BE1E2D"/>
<path d="M108.51 41.2679C108.51 40.8862 108.564 40.5777 108.675 40.3358C108.784 40.0928 108.927 39.9051 109.101 39.7686C109.278 39.631 109.474 39.5413 109.69 39.4931C109.909 39.4435 110.125 39.4203 110.339 39.4203H110.753C110.78 39.54 110.789 39.6496 110.77 39.752C110.759 39.8373 110.721 39.9183 110.656 39.9977C110.591 40.0789 110.485 40.1272 110.339 40.1431C110.243 40.1542 110.148 40.1754 110.056 40.2077C109.964 40.2382 109.879 40.2937 109.806 40.3683C109.732 40.445 109.671 40.5551 109.624 40.6966C109.577 40.8386 109.55 41.0288 109.55 41.2679V42.5006C109.55 42.6717 109.554 42.8096 109.555 42.9135C109.558 43.0193 109.563 43.103 109.568 43.1651C109.574 43.2345 109.579 43.2846 109.585 43.3196C109.24 43.3196 108.975 43.247 108.789 43.101C108.604 42.9565 108.51 42.7147 108.51 42.3743V41.2679Z" fill="#BE1E2D"/>
<path d="M113.421 41.5553C113.348 41.5442 113.264 41.5328 113.172 41.5223C113.078 41.511 112.982 41.5051 112.888 41.5051C112.808 41.5051 112.732 41.5096 112.66 41.519C112.585 41.5262 112.519 41.5435 112.455 41.5646C112.314 41.6115 112.209 41.6814 112.135 41.7774C112.106 41.8124 112.084 41.8506 112.066 41.8928C112.05 41.9358 112.037 41.9826 112.034 42.0342C112.028 42.0502 112.024 42.0766 112.024 42.1102C112.024 42.1676 112.034 42.2265 112.05 42.2925C112.066 42.3585 112.1 42.4199 112.151 42.4761C112.196 42.5323 112.264 42.5798 112.35 42.6201C112.436 42.6597 112.555 42.6797 112.702 42.6797C112.746 42.6797 112.779 42.677 112.804 42.6717C112.963 42.6658 113.101 42.6201 113.218 42.535C113.275 42.5006 113.321 42.4597 113.361 42.4115C113.402 42.3631 113.438 42.3111 113.463 42.2556C113.524 42.1471 113.567 42.0356 113.591 41.9219C113.613 41.809 113.624 41.7039 113.624 41.6088C113.62 41.6088 113.616 41.6088 113.613 41.6029C113.608 41.6004 113.603 41.5997 113.6 41.5997C113.578 41.5943 113.55 41.587 113.522 41.5831C113.495 41.5778 113.461 41.5685 113.421 41.5553ZM111.667 41.1465C111.821 41.0519 111.993 40.9781 112.185 40.9317C112.376 40.8822 112.576 40.8585 112.784 40.8585C113.078 40.8585 113.358 40.9001 113.624 40.9866C113.606 40.8102 113.571 40.6544 113.514 40.5183C113.441 40.3411 113.33 40.2137 113.185 40.1345C113.128 40.1061 113.065 40.0854 113.002 40.071C112.938 40.0578 112.863 40.0494 112.777 40.0494H112.685C112.605 40.0546 112.527 40.0685 112.447 40.0875C112.369 40.1086 112.291 40.1332 112.21 40.1609C112.131 40.1887 112.052 40.213 111.972 40.2323C111.893 40.2541 111.817 40.2619 111.744 40.2619C111.665 40.2619 111.589 40.2455 111.516 40.2118C111.448 40.1721 111.389 40.1061 111.337 40.0162L111.322 39.9819L111.337 39.9561C111.507 39.7771 111.706 39.6283 111.935 39.5182C112.164 39.4058 112.414 39.3446 112.685 39.3266C112.713 39.32 112.736 39.318 112.755 39.318H112.828C113.087 39.318 113.323 39.365 113.541 39.4574C113.754 39.5505 113.94 39.6813 114.098 39.8451C114.42 40.1973 114.587 40.6596 114.596 41.2336V41.303C114.596 41.8921 114.447 42.371 114.148 42.7384C114.002 42.9207 113.827 43.0686 113.62 43.1836C113.414 43.2958 113.185 43.3673 112.929 43.395C112.898 43.4009 112.863 43.4023 112.828 43.4023H112.719C112.601 43.4023 112.476 43.393 112.345 43.3732C112.214 43.3541 112.089 43.315 111.965 43.2589C111.834 43.2089 111.716 43.1413 111.608 43.0581C111.501 42.9768 111.412 42.8704 111.337 42.7384C111.231 42.5746 111.175 42.3744 111.169 42.1346V42.0845C111.169 41.8632 111.215 41.6794 111.305 41.5315C111.384 41.3836 111.505 41.2555 111.667 41.1465Z" fill="#BE1E2D"/>
<path d="M117.469 42.9769C117.366 43.1651 117.249 43.2932 117.113 43.3612C116.979 43.4294 116.849 43.4683 116.731 43.481C116.592 43.4893 116.449 43.4683 116.308 43.4128C116.263 43.3098 116.201 43.1664 116.128 42.9828C116.049 42.7985 115.964 42.5924 115.874 42.3658C115.779 42.1386 115.679 41.9001 115.574 41.6492C115.471 41.4002 115.371 41.1616 115.278 40.9318C115.188 40.7006 115.103 40.4925 115.025 40.3055C114.95 40.1173 114.891 39.9733 114.852 39.8709C114.827 39.8195 114.807 39.7685 114.785 39.719C114.761 39.6673 114.743 39.6198 114.725 39.5738C114.703 39.5235 114.683 39.4712 114.666 39.4203C114.835 39.3808 114.996 39.367 115.15 39.3775C115.278 39.3879 115.409 39.4275 115.543 39.493C115.674 39.5565 115.779 39.6812 115.859 39.863C115.884 39.9264 115.916 40.0077 115.955 40.1133C115.998 40.2183 116.043 40.3339 116.091 40.4581C116.142 40.583 116.19 40.7145 116.244 40.8499C116.298 40.9865 116.35 41.1234 116.402 41.2594C116.52 41.5705 116.648 41.9093 116.791 42.2721C116.925 41.9093 117.057 41.5705 117.181 41.2594C117.229 41.1234 117.284 40.9865 117.343 40.8499C117.4 40.7145 117.45 40.583 117.498 40.4581C117.545 40.3339 117.59 40.2183 117.632 40.1133C117.668 40.0077 117.701 39.9264 117.73 39.863C117.804 39.6812 117.909 39.5565 118.045 39.493C118.18 39.4275 118.311 39.3879 118.442 39.3775C118.593 39.367 118.755 39.3808 118.924 39.4203C118.902 39.466 118.88 39.5135 118.858 39.5651C118.84 39.61 118.821 39.6607 118.799 39.7144C118.776 39.7665 118.755 39.8195 118.738 39.8709C118.698 39.9772 118.644 40.1199 118.579 40.2925C118.51 40.4661 118.438 40.6517 118.363 40.8545C118.286 41.0565 118.203 41.2626 118.116 41.4754C118.028 41.6881 117.945 41.8928 117.868 42.0891C117.789 42.2846 117.712 42.4596 117.641 42.6161C117.573 42.7728 117.514 42.8923 117.469 42.9769Z" fill="#BE1E2D"/>
<path d="M120.865 40.0493C120.801 40.0545 120.73 40.071 120.645 40.0967C120.558 40.1226 120.477 40.1688 120.393 40.2361C120.313 40.3055 120.238 40.402 120.169 40.5267C120.103 40.6517 120.054 40.8101 120.025 41.0031C120.117 41.0308 120.244 41.0599 120.41 41.0843C120.577 41.1095 120.744 41.1141 120.91 41.0956C121.078 41.0797 121.221 41.0308 121.35 40.953C121.478 40.8736 121.547 40.7396 121.558 40.5533C121.57 40.4099 121.514 40.2891 121.393 40.1854C121.273 40.0842 121.095 40.0393 120.865 40.0493ZM122.167 42.4921C122.235 42.5324 122.3 42.6009 122.362 42.6969L122.386 42.7233L122.362 42.749C122.177 42.9544 121.954 43.113 121.698 43.2306C121.441 43.3455 121.164 43.4022 120.865 43.4022C120.604 43.4022 120.361 43.3521 120.131 43.247C119.903 43.1412 119.701 42.996 119.525 42.8097C119.357 42.6261 119.222 42.4114 119.124 42.1663C119.026 41.9179 118.975 41.6532 118.975 41.3704C118.975 41.085 119.019 40.8201 119.108 40.5744C119.195 40.3253 119.322 40.1112 119.482 39.9217C119.647 39.7388 119.848 39.5968 120.081 39.4878C120.315 39.3808 120.576 39.3265 120.865 39.3265C121.02 39.3265 121.197 39.3504 121.383 39.3978C121.576 39.4474 121.751 39.524 121.913 39.6284C122.077 39.7349 122.214 39.8708 122.322 40.042C122.427 40.2118 122.48 40.4145 122.48 40.6543C122.48 40.8875 122.425 41.0757 122.305 41.221C122.187 41.365 122.043 41.4793 121.879 41.5607C121.715 41.6426 121.543 41.7013 121.359 41.7311C121.175 41.7614 121.017 41.7773 120.881 41.7773C120.673 41.7773 120.488 41.7654 120.334 41.7395C120.179 41.7152 120.073 41.6947 120.018 41.6834C120.039 41.8883 120.085 42.056 120.152 42.1816C120.22 42.311 120.297 42.41 120.381 42.4855C120.466 42.5581 120.549 42.6082 120.637 42.6334C120.721 42.6584 120.796 42.6716 120.865 42.6716C120.982 42.6716 121.095 42.6598 121.203 42.638C121.311 42.6155 121.407 42.5897 121.491 42.5608C121.576 42.5324 121.654 42.5046 121.731 42.4762C121.809 42.4471 121.881 42.4325 121.957 42.4325C122.036 42.4325 122.104 42.4516 122.167 42.4921Z" fill="#BE1E2D"/>
<path d="M124.853 42.5522C124.864 42.7008 124.853 42.8334 124.821 42.9544C124.791 43.0534 124.732 43.1526 124.649 43.247C124.564 43.3387 124.433 43.3917 124.251 43.4022C124.075 43.4215 123.924 43.4017 123.792 43.348C123.663 43.2959 123.555 43.2193 123.466 43.1242C123.381 43.0265 123.316 42.9135 123.272 42.7813C123.229 42.6532 123.21 42.5158 123.21 42.3743V38.2274C123.203 38.0575 123.2 37.9209 123.197 37.8145C123.191 37.7109 123.189 37.6275 123.185 37.5654C123.179 37.4962 123.173 37.4434 123.169 37.4023C123.517 37.4023 123.784 37.4764 123.97 37.6229C124.158 37.7717 124.251 38.0121 124.251 38.3489V42.2721C124.251 42.4075 124.276 42.5053 124.329 42.5647C124.377 42.6254 124.437 42.6598 124.505 42.6716C124.573 42.6823 124.641 42.6762 124.708 42.6498C124.776 42.6254 124.825 42.5923 124.853 42.5522Z" fill="#BE1E2D"/>
<path d="M128.485 42.494C128.485 42.6637 128.487 42.8025 128.49 42.9095C128.49 43.0186 128.496 43.1037 128.501 43.1652C128.508 43.2346 128.512 43.2846 128.517 43.3197C128.168 43.3197 127.901 43.2471 127.717 43.0976C127.534 42.9497 127.443 42.7093 127.443 42.3744L127.45 39.3518C127.45 39.069 127.493 38.8033 127.573 38.561C127.657 38.3165 127.778 38.1005 127.943 37.9137C128.1 37.7267 128.293 37.5793 128.517 37.4757C128.746 37.3693 129 37.3165 129.288 37.3165C129.458 37.3165 129.603 37.3448 129.721 37.4023C129.851 37.4532 129.953 37.5385 130.026 37.6594C130.071 37.7499 130.094 37.8389 130.094 37.9308C130.094 37.9936 130.087 38.0537 130.066 38.1092L130.051 38.1601L130.009 38.1442C129.931 38.1164 129.838 38.0906 129.732 38.0714C129.629 38.051 129.512 38.0411 129.382 38.0411C129.334 38.0411 129.279 38.0464 129.211 38.0576C129.145 38.0675 129.071 38.0946 128.993 38.1342C128.912 38.1752 128.839 38.2288 128.769 38.3007C128.699 38.3721 128.638 38.4673 128.587 38.5854C128.553 38.6654 128.525 38.7578 128.506 38.8668C128.487 38.9744 128.474 39.0968 128.474 39.2328V39.3266H129.619C129.619 39.5809 129.548 39.7857 129.409 39.9389C129.265 40.0922 129.065 40.1688 128.807 40.1688H128.474L128.485 42.494Z" fill="#BE1E2D"/>
<path d="M131.618 42.6796C131.691 42.6796 131.776 42.6637 131.876 42.6287C131.972 42.595 132.07 42.5304 132.158 42.4325C132.251 42.3388 132.328 42.2027 132.387 42.0343C132.449 41.8633 132.482 41.6412 132.482 41.3684C132.482 41.0956 132.449 40.875 132.387 40.7007C132.328 40.5281 132.251 40.394 132.158 40.3008C132.07 40.2079 131.972 40.1431 131.876 40.1112C131.776 40.0755 131.691 40.0593 131.618 40.0593C131.544 40.0593 131.459 40.0755 131.36 40.1112C131.263 40.1431 131.166 40.2079 131.076 40.3008C130.985 40.394 130.909 40.5281 130.848 40.7007C130.785 40.875 130.754 41.0956 130.754 41.3684C130.754 41.6412 130.785 41.8633 130.848 42.0343C130.909 42.2027 130.985 42.3388 131.076 42.4325C131.166 42.5304 131.263 42.595 131.36 42.6287C131.459 42.6637 131.544 42.6796 131.618 42.6796ZM132.957 39.931C133.13 40.1133 133.266 40.3253 133.367 40.5744C133.464 40.8201 133.513 41.0857 133.513 41.3684C133.513 41.6532 133.469 41.9179 133.378 42.1663C133.289 42.4114 133.162 42.6261 132.998 42.8077C132.836 42.9961 132.633 43.1426 132.401 43.2504C132.168 43.358 131.906 43.4129 131.618 43.4129C131.357 43.4129 131.114 43.358 130.884 43.2504C130.657 43.1426 130.455 42.9961 130.281 42.8077C130.11 42.6261 129.978 42.4114 129.878 42.1663C129.779 41.9179 129.732 41.6532 129.732 41.3684C129.732 41.0857 129.774 40.8201 129.861 40.5744C129.947 40.3253 130.073 40.1133 130.239 39.931C130.4 39.744 130.602 39.5975 130.834 39.4878C131.066 39.3809 131.33 39.3267 131.618 39.3267C131.882 39.3267 132.131 39.3809 132.359 39.4878C132.588 39.5975 132.786 39.744 132.957 39.931Z" fill="#BE1E2D"/>
<path d="M134.149 41.2679C134.149 40.8862 134.204 40.5777 134.316 40.3358C134.423 40.0928 134.567 39.9051 134.743 39.7686C134.917 39.631 135.115 39.5413 135.331 39.4931C135.548 39.4435 135.764 39.4203 135.977 39.4203H136.393C136.421 39.54 136.427 39.6496 136.412 39.752C136.4 39.8373 136.36 39.9183 136.295 39.9977C136.233 40.0789 136.123 40.1272 135.977 40.1431C135.882 40.1542 135.786 40.1754 135.696 40.2077C135.604 40.2382 135.518 40.2937 135.446 40.3683C135.372 40.445 135.31 40.5551 135.264 40.6966C135.215 40.8386 135.191 41.0288 135.191 41.2679V42.5006C135.191 42.6717 135.191 42.8096 135.193 42.9135C135.199 43.0193 135.201 43.103 135.209 43.1651C135.212 43.2345 135.22 43.2846 135.225 43.3196C134.88 43.3196 134.614 43.247 134.428 43.101C134.242 42.9565 134.149 42.7147 134.149 42.3743V41.2679Z" fill="#BE1E2D"/>
<path d="M140.526 42.5522C140.538 42.7008 140.526 42.8334 140.493 42.9544C140.463 43.0534 140.407 43.1526 140.323 43.247C140.235 43.3387 140.104 43.3917 139.926 43.4022C139.749 43.4215 139.597 43.4017 139.467 43.348C139.337 43.2959 139.231 43.2193 139.14 43.1242C139.054 43.0265 138.989 42.9135 138.946 42.7813C138.903 42.6532 138.882 42.5158 138.882 42.3743V38.2274C138.878 38.0575 138.872 37.9209 138.87 37.8145C138.868 37.7109 138.863 37.6275 138.857 37.5654C138.852 37.4962 138.846 37.4434 138.84 37.4023C139.19 37.4023 139.459 37.4764 139.645 37.6229C139.83 37.7717 139.926 38.0121 139.926 38.3489V42.2721C139.926 42.4075 139.949 42.5053 140.001 42.5647C140.05 42.6254 140.11 42.6598 140.179 42.6716C140.245 42.6823 140.315 42.6762 140.382 42.6498C140.45 42.6254 140.498 42.5923 140.526 42.5522Z" fill="#BE1E2D"/>
<path d="M142.971 40.0493C142.91 40.0545 142.835 40.071 142.752 40.0967C142.669 40.1226 142.585 40.1688 142.503 40.2361C142.42 40.3055 142.346 40.402 142.279 40.5267C142.21 40.6517 142.163 40.8101 142.134 41.0031C142.224 41.0308 142.354 41.0599 142.518 41.0843C142.687 41.1095 142.852 41.1141 143.019 41.0956C143.186 41.0797 143.333 41.0308 143.458 40.953C143.585 40.8736 143.656 40.7396 143.667 40.5533C143.678 40.4099 143.623 40.2891 143.502 40.1854C143.382 40.0842 143.205 40.0393 142.971 40.0493ZM144.278 42.4921C144.344 42.5324 144.41 42.6009 144.473 42.6969L144.497 42.7233L144.473 42.749C144.282 42.9544 144.065 43.113 143.806 43.2306C143.549 43.3455 143.272 43.4022 142.971 43.4022C142.713 43.4022 142.469 43.3521 142.241 43.247C142.014 43.1412 141.81 42.996 141.635 42.8097C141.468 42.6261 141.331 42.4114 141.234 42.1663C141.132 41.9179 141.084 41.6532 141.084 41.3704C141.084 41.085 141.127 40.8201 141.215 40.5744C141.305 40.3253 141.43 40.1112 141.593 39.9217C141.758 39.7388 141.954 39.5968 142.189 39.4878C142.424 39.3808 142.685 39.3265 142.971 39.3265C143.129 39.3265 143.306 39.3504 143.492 39.3978C143.682 39.4474 143.859 39.524 144.022 39.6284C144.186 39.7349 144.32 39.8708 144.429 40.042C144.538 40.2118 144.592 40.4145 144.592 40.6543C144.592 40.8875 144.53 41.0757 144.413 41.221C144.293 41.365 144.152 41.4793 143.988 41.5607C143.826 41.6426 143.651 41.7013 143.467 41.7311C143.285 41.7614 143.126 41.7773 142.989 41.7773C142.78 41.7773 142.599 41.7654 142.444 41.7395C142.288 41.7152 142.183 41.6947 142.127 41.6834C142.149 41.8883 142.195 42.056 142.26 42.1816C142.33 42.311 142.406 42.41 142.49 42.4855C142.574 42.5581 142.66 42.6082 142.744 42.6334C142.827 42.6584 142.905 42.6716 142.971 42.6716C143.092 42.6716 143.205 42.6598 143.313 42.638C143.418 42.6155 143.515 42.5897 143.601 42.5608C143.686 42.5324 143.764 42.5046 143.841 42.4762C143.917 42.4471 143.99 42.4325 144.065 42.4325C144.143 42.4325 144.214 42.4516 144.278 42.4921Z" fill="#BE1E2D"/>
<path d="M147.079 42.323C147.089 42.2259 147.062 42.1465 146.999 42.0798C146.935 42.0152 146.842 41.9517 146.719 41.8928C146.598 41.8329 146.455 41.7713 146.291 41.7012C146.129 41.6334 145.956 41.5435 145.776 41.4293C145.64 41.3493 145.528 41.2553 145.441 41.1452C145.353 41.0335 145.291 40.916 145.25 40.7857C145.211 40.6583 145.194 40.5282 145.198 40.3941C145.205 40.2613 145.238 40.1291 145.293 39.9985C145.349 39.8741 145.422 39.7685 145.514 39.6839C145.603 39.5988 145.703 39.528 145.814 39.4746C145.923 39.4211 146.034 39.3835 146.149 39.3597C146.261 39.3378 146.364 39.3267 146.462 39.3267H146.561C146.861 39.3444 147.136 39.417 147.385 39.5485C147.633 39.678 147.846 39.8529 148.02 40.0665L148.045 40.0921L148.02 40.1271C147.962 40.2071 147.9 40.2654 147.834 40.3055C147.771 40.3451 147.701 40.3644 147.621 40.3644C147.54 40.3644 147.466 40.3491 147.391 40.3193C147.318 40.2872 147.239 40.2547 147.154 40.2197C147.047 40.1748 146.95 40.1378 146.854 40.1059C146.762 40.0743 146.668 40.0579 146.571 40.0579C146.446 40.0579 146.353 40.0855 146.291 40.1391C146.231 40.1926 146.192 40.2567 146.183 40.33C146.17 40.439 146.204 40.5282 146.282 40.5994C146.362 40.6701 146.477 40.7363 146.63 40.7996C146.806 40.8737 146.992 40.955 147.189 41.0401C147.387 41.1293 147.562 41.2362 147.714 41.3652C147.867 41.4933 147.984 41.6466 148.062 41.8243C148.141 42.0038 148.148 42.2218 148.087 42.4761C148.058 42.5792 148.011 42.685 147.943 42.7946C147.874 42.9048 147.78 43.006 147.66 43.0977C147.537 43.1876 147.39 43.2636 147.22 43.323C147.046 43.3812 146.845 43.4128 146.614 43.4128C146.569 43.4128 146.533 43.4096 146.504 43.4023C146.234 43.3917 145.965 43.3209 145.703 43.1923C145.441 43.06 145.223 42.8884 145.049 42.6718L145.022 42.6445L145.049 42.6115C145.076 42.5667 145.108 42.5305 145.14 42.5007C145.175 42.4736 145.205 42.447 145.234 42.4247C145.302 42.3908 145.367 42.3744 145.436 42.3744C145.517 42.3744 145.591 42.3908 145.665 42.4206C145.739 42.4518 145.818 42.4854 145.903 42.5171C145.981 42.5582 146.069 42.5924 146.17 42.6202C146.268 42.6493 146.377 42.6697 146.495 42.6795C146.699 42.6795 146.845 42.6413 146.931 42.5608C147.018 42.4809 147.07 42.4015 147.079 42.323Z" fill="#BE1E2D"/>
<path d="M150.609 42.323C150.622 42.2259 150.595 42.1465 150.529 42.0798C150.465 42.0152 150.371 41.9517 150.249 41.8928C150.129 41.8329 149.986 41.7713 149.823 41.7012C149.659 41.6334 149.485 41.5435 149.307 41.4293C149.17 41.3493 149.06 41.2553 148.973 41.1452C148.884 41.0335 148.822 40.916 148.78 40.7857C148.741 40.6583 148.725 40.5282 148.731 40.3941C148.736 40.2613 148.767 40.1291 148.822 39.9985C148.88 39.8741 148.954 39.7685 149.044 39.6839C149.133 39.5988 149.235 39.528 149.344 39.4746C149.455 39.4211 149.566 39.3835 149.677 39.3597C149.792 39.3378 149.896 39.3267 149.993 39.3267H150.094C150.393 39.3444 150.667 39.417 150.916 39.5485C151.164 39.678 151.375 39.8529 151.551 40.0665L151.576 40.0921L151.551 40.1271C151.493 40.2071 151.43 40.2654 151.363 40.3055C151.303 40.3451 151.231 40.3644 151.154 40.3644C151.072 40.3644 150.998 40.3491 150.923 40.3193C150.85 40.2872 150.771 40.2547 150.687 40.2197C150.579 40.1748 150.48 40.1378 150.386 40.1059C150.292 40.0743 150.198 40.0579 150.102 40.0579C149.978 40.0579 149.885 40.0855 149.823 40.1391C149.761 40.1926 149.723 40.2567 149.712 40.33C149.703 40.439 149.736 40.5282 149.815 40.5994C149.896 40.6701 150.009 40.7363 150.162 40.7996C150.334 40.8737 150.522 40.955 150.721 41.0401C150.917 41.1293 151.093 41.2362 151.245 41.3652C151.398 41.4933 151.514 41.6466 151.593 41.8243C151.672 42.0038 151.682 42.2218 151.618 42.4761C151.591 42.5792 151.543 42.685 151.473 42.7946C151.409 42.9048 151.313 43.006 151.191 43.0977C151.07 43.1876 150.921 43.2636 150.748 43.323C150.579 43.3812 150.377 43.4128 150.145 43.4128C150.1 43.4128 150.064 43.4096 150.034 43.4023C149.765 43.3917 149.496 43.3209 149.235 43.1923C148.973 43.06 148.752 42.8884 148.578 42.6718L148.551 42.6445L148.578 42.6115C148.606 42.5667 148.639 42.5305 148.671 42.5007C148.706 42.4736 148.736 42.447 148.763 42.4247C148.83 42.3908 148.899 42.3744 148.967 42.3744C149.044 42.3744 149.123 42.3908 149.196 42.4206C149.269 42.4518 149.348 42.4854 149.432 42.5171C149.512 42.5582 149.601 42.5924 149.701 42.6202C149.8 42.6493 149.908 42.6697 150.026 42.6795C150.23 42.6795 150.376 42.6413 150.462 42.5608C150.549 42.4809 150.599 42.4015 150.609 42.323Z" fill="#BE1E2D"/>
<path d="M105.059 28.2108C101.239 28.2108 98.1436 25.0987 98.1436 21.2589C98.1436 17.421 101.239 14.3091 105.059 14.3091C108.877 14.3091 111.971 17.421 111.971 21.2589C111.971 25.0987 108.877 28.2108 105.059 28.2108ZM105.059 7.51716C97.5076 7.51716 91.3875 13.6691 91.3875 21.2589C91.3875 28.8501 97.5076 35.0025 105.059 35.0025C112.608 35.0025 118.728 28.8501 118.728 21.2589C118.728 13.6691 112.608 7.51716 105.059 7.51716Z" fill="#BE1E2D"/>
<path d="M100.656 22.4624L98.7218 21.5166L98.3795 21.8606L99.3106 22.944" fill="#BE1E2D"/>
<path d="M110.309 19.488C110.309 19.488 111.671 19.2468 111.622 19.9007C111.622 19.9007 111.579 20.3473 110.689 20.7939C110.689 20.7939 102.552 23.4995 102.368 23.5102C102.368 23.5102 100.219 23.5518 99.4405 23.156L103.382 21.7972L101.472 19.4985L101.934 19.005L106.417 20.7832L110.309 19.488Z" fill="#BE1E2D"/>
<path d="M15.4861 23.8813V29.1815H17.2135C19.6934 29.1815 20.9365 28.3158 20.9365 26.5844C20.9365 25.499 20.6034 24.7771 19.9398 24.419C19.2859 24.0616 18.3477 23.8813 17.1248 23.8813H15.4861ZM15.4861 13.7489V18.8861H17.1248C18.1334 18.8861 18.8943 18.6529 19.4049 18.1879C19.9147 17.748 20.1691 17.104 20.1691 16.2551C20.1691 15.3601 19.8496 14.7153 19.2077 14.321C18.5546 13.9392 17.7831 13.7489 16.8935 13.7489H15.4861ZM8.98553 8.77223H16.4112C18.276 8.77223 19.9856 8.98038 21.5417 9.39786C23.0602 9.8035 24.3013 10.5075 25.2627 11.511C26.1996 12.49 26.6695 13.7952 26.6695 15.432C26.6695 16.6719 26.3612 17.7533 25.743 18.6722C25.1253 19.6029 24.2896 20.2958 23.2329 20.7489V20.8395C23.8388 21.0779 24.4025 21.3983 24.9257 21.8051C25.4223 22.1989 25.8692 22.6705 26.2607 23.2195C26.628 23.7453 26.9179 24.3364 27.1334 24.9923C27.335 25.6603 27.4371 26.3644 27.4371 27.1055C27.4371 29.2298 26.653 30.9361 25.0846 32.2242C23.5063 33.5254 21.1192 34.1768 17.925 34.1768H8.98553V8.77223Z" fill="#BE1E2D"/>
<path d="M35.4316 28.1975C36.3692 29.1163 37.4811 29.574 38.7631 29.574C40.0567 29.574 41.1725 29.1163 42.1114 28.1975C43.059 27.2775 43.534 26.1807 43.534 24.9025C43.534 24.0676 43.3152 23.2988 42.8763 22.5919C42.4373 21.8884 41.8505 21.3269 41.1127 20.9101C40.3885 20.4926 39.6053 20.2846 38.7631 20.2846C37.9416 20.2846 37.1656 20.4926 36.429 20.9101C35.6925 21.3269 35.105 21.8884 34.6662 22.5919C34.2265 23.2988 34.0065 24.0676 34.0065 24.9025C34.0065 26.1807 34.4814 27.2775 35.4316 28.1975ZM33.6148 33.4786C32.0003 32.6191 30.7183 31.444 29.7689 29.9519C28.807 28.4472 28.3266 26.7633 28.3266 24.9025C28.3266 23.5049 28.6052 22.2049 29.1637 20.9993C29.7223 19.7937 30.4865 18.7508 31.461 17.8662C32.4459 16.9712 33.5682 16.2848 34.8265 15.8072C36.109 15.3304 37.4193 15.0912 38.7631 15.0912C40.1167 15.0912 41.434 15.3304 42.7166 15.8072C43.9624 16.2618 45.084 16.9414 46.0809 17.8491C47.0665 18.756 47.8339 19.8064 48.3793 20.9993C48.9372 22.2049 49.2164 23.5049 49.2164 24.9025C49.2164 26.3222 48.9431 27.624 48.3963 28.8071C47.8511 29.9995 47.0796 31.0556 46.0809 31.9745C45.0722 32.8807 43.95 33.5685 42.7166 34.0328C41.4689 34.5236 40.15 34.7681 38.7631 34.7681C36.9463 34.7681 35.2299 34.3381 33.6148 33.4786Z" fill="#BE1E2D"/>
<path d="M57.211 28.1975C58.1493 29.1163 59.261 29.574 60.5425 29.574C61.8362 29.574 62.9525 29.1163 63.8895 28.1975C64.8404 27.2775 65.3154 26.1807 65.3154 24.9025C65.3154 24.0676 65.0946 23.2988 64.6551 22.5919C64.2167 21.8884 63.6287 21.3269 62.8926 20.9101C62.1679 20.4926 61.3847 20.2846 60.5425 20.2846C59.7222 20.2846 58.945 20.4926 58.2098 20.9101C57.4738 21.3269 56.8851 21.8884 56.4468 22.5919C56.0086 23.2988 55.7873 24.0676 55.7873 24.9025C55.7873 26.1807 56.2621 27.2775 57.211 28.1975ZM55.3962 33.4786C53.7804 32.6191 52.4984 31.444 51.5503 29.9519C50.5876 28.4472 50.1067 26.7633 50.1067 24.9025C50.1067 23.5049 50.386 22.2049 50.9431 20.9993C51.5003 19.7937 52.2659 18.7508 53.2404 17.8662C54.2266 16.9712 55.3476 16.2848 56.6079 15.8072C57.8884 15.3304 59.2007 15.0912 60.5425 15.0912C61.8961 15.0912 63.2135 15.3304 64.4953 15.8072C65.7432 16.2618 66.8634 16.9414 67.8622 17.8491C68.8471 18.756 69.6133 19.8064 70.1587 20.9993C70.7159 22.2049 70.9958 23.5049 70.9958 24.9025C70.9958 26.3222 70.7238 27.624 70.1764 28.8071C69.6305 29.9995 68.857 31.0556 67.8622 31.9745C66.853 32.8807 65.73 33.5685 64.4953 34.0328C63.249 34.5236 61.9321 34.7681 60.5425 34.7681C58.7262 34.7681 57.0105 34.3381 55.3962 33.4786Z" fill="#BE1E2D"/>
<path d="M71.8856 34.1768V8.78929L77.5857 8.7722V22.8072H77.6559L83.5506 15.8615H90.2304L83.6379 23.7207L91.387 34.1768H84.282L77.5857 25.1886V34.1768H71.8856Z" fill="#BE1E2D"/>
<path d="M124.685 20.5911H120.927L122.21 15.6864H124.685V8.63163L130.366 8.66733V15.6864H134.141L132.878 20.5911H130.366V26.6602C130.366 28.2833 131.375 29.0946 133.393 29.0946C134.046 29.0946 134.545 29.0166 134.889 28.8621V34.3875C134.592 34.4351 132.733 34.4603 132.448 34.4603C130.749 34.4603 129.269 34.352 128.14 33.803C126.999 33.2547 126.14 32.425 125.557 31.3159C124.976 30.2167 124.685 28.8157 124.685 27.1082V20.5911Z" fill="#BE1E2D"/>
<path d="M144.799 21.3098C144.512 21.1155 144.14 21.0059 143.682 20.9815H143.374C141.976 21.0409 141.278 22.0178 141.278 23.9184V34.3855H135.778V23.9184C135.778 18.8861 138.312 16.2438 143.374 15.9896H143.682C144.06 16.0015 144.432 16.0365 144.799 16.0939V21.3098Z" fill="#BE1E2D"/>
<path d="M151.704 16.0709V34.4219H146.025V16.0893L151.704 16.0709ZM151.493 12.496C151.216 12.9642 150.836 13.3453 150.358 13.6367C149.877 13.9307 149.347 14.0747 148.767 14.0747C148.186 14.0747 147.663 13.9352 147.198 13.6565C146.716 13.3644 146.337 12.9774 146.06 12.496C145.771 11.9873 145.626 11.4483 145.626 10.8795C145.626 10.2948 145.766 9.76242 146.041 9.2808C146.345 8.78615 146.729 8.39778 147.198 8.11957C147.663 7.8422 148.186 7.70276 148.767 7.70276C149.347 7.70276 149.877 7.8422 150.358 8.11957C150.823 8.39778 151.202 8.78615 151.493 9.2808C151.771 9.76242 151.91 10.2948 151.91 10.8795C151.91 11.4865 151.771 12.0248 151.493 12.496Z" fill="#BE1E2D"/>
<path d="M158.363 24.9554C158.363 25.8043 158.585 26.5672 159.024 27.2483C159.461 27.9531 160.051 28.5131 160.787 28.9299C161.509 29.3494 162.289 29.5576 163.12 29.5576C163.95 29.5576 164.734 29.3494 165.47 28.9299C166.206 28.5131 166.794 27.9531 167.232 27.2483C167.673 26.5546 167.892 25.7916 167.892 24.9554C167.892 23.6911 167.418 22.5918 166.467 21.6611C165.529 20.7437 164.414 20.2833 163.12 20.2833C161.837 20.2833 160.726 20.7437 159.789 21.6611C158.838 22.5807 158.363 23.6779 158.363 24.9554ZM152.683 24.8299C152.694 23.0041 153.176 21.3639 154.126 19.9081C155.075 18.4165 156.356 17.246 157.973 16.3985C159.587 15.5396 161.302 15.109 163.12 15.109C164.508 15.109 165.827 15.3535 167.073 15.8443C168.307 16.2968 169.43 16.9832 170.439 17.9026C171.436 18.8201 172.208 19.8717 172.755 21.0541C173.298 22.2344 173.573 23.5372 173.573 24.9554C173.573 26.3407 173.294 27.6353 172.737 28.8402C172.189 30.0331 171.425 31.0788 170.439 31.9745C169.453 32.8809 168.332 33.5684 167.073 34.0328C165.802 34.4992 164.484 34.731 163.12 34.731C161.777 34.731 160.467 34.4992 159.184 34.0328L158.773 33.8544L158.363 33.6749V43.0633L152.683 43.0448V24.8299Z" fill="#BE1E2D"/>
<path d="M171.768 32.2662C171.917 32.0238 172.109 31.8365 172.345 31.7038C172.586 31.5652 172.841 31.496 173.111 31.496C173.38 31.496 173.636 31.5652 173.877 31.7038C174.112 31.848 174.301 32.0384 174.445 32.2748C174.588 32.5056 174.66 32.7593 174.66 33.0363C174.66 33.4978 174.511 33.8784 174.212 34.1784C173.908 34.4839 173.541 34.6371 173.111 34.6371C172.824 34.6371 172.563 34.5678 172.327 34.4292C172.087 34.2908 171.897 34.0976 171.759 33.8495C171.622 33.5958 171.553 33.3249 171.553 33.0363C171.553 32.7537 171.624 32.497 171.768 32.2662Z" fill="#BE1E2D"/>
<path d="M179.024 32.1875H179.175C179.858 32.165 180.2 31.6891 180.2 30.7599V25.7256H182.889V30.7599C182.889 33.2095 181.651 34.502 179.175 34.6371H179.024C176.548 34.502 175.31 33.2095 175.31 30.7599V25.7256H177.999V30.7599C177.999 31.6891 178.34 32.165 179.024 32.1875Z" fill="#BE1E2D"/>
<path d="M183.814 34.3752V22.3975L186.503 22.389V29.0114H186.536L189.317 25.734H192.468L189.359 29.4423L193.014 34.3752H189.662L186.503 30.1347V34.3752H183.814Z" fill="#BE1E2D"/>
</svg>
