<svg width="256" height="65" viewBox="0 0 256 65" fill="none" xmlns="http://www.w3.org/2000/svg">
<path d="M134.669 54.3268C134.669 54.5432 134.67 54.72 134.673 54.8563C134.678 54.9954 134.682 55.1037 134.691 55.1822C134.698 55.2707 134.704 55.3345 134.711 55.3791C134.268 55.3791 133.929 55.2866 133.693 55.0962C133.457 54.9077 133.34 54.5971 133.34 54.1633L133.36 48.9108H131C131 48.585 131.089 48.3266 131.268 48.1312C131.445 47.9342 131.7 47.8374 132.029 47.8374H137.031C137.031 48.165 136.942 48.4243 136.763 48.618C136.582 48.8131 136.329 48.9108 136 48.9108H134.657L134.669 54.3268Z" fill="white"/>
<path d="M137.459 52.7642C137.459 52.2776 137.528 51.8844 137.669 51.5762C137.807 51.2663 137.988 51.0273 138.208 50.8531C138.433 50.6777 138.68 50.5634 138.955 50.5019C139.232 50.4387 139.506 50.4092 139.777 50.4092H140.303C140.337 50.5617 140.348 50.7012 140.324 50.8319C140.31 50.9406 140.262 51.0439 140.18 51.1451C140.097 51.2484 139.963 51.3101 139.777 51.3301C139.656 51.3444 139.536 51.3713 139.419 51.4127C139.302 51.4516 139.194 51.5223 139.102 51.6172C139.009 51.7149 138.93 51.8553 138.871 52.0356C138.811 52.2166 138.778 52.459 138.778 52.7638V54.3348C138.778 54.5529 138.782 54.7286 138.784 54.8609C138.787 54.9957 138.794 55.1024 138.8 55.1816C138.808 55.27 138.814 55.3339 138.822 55.3785C138.385 55.3785 138.048 55.286 137.814 55.0998C137.578 54.9156 137.459 54.6074 137.459 54.1737V52.7642H137.459Z" fill="white"/>
<path d="M141.461 52.6093C141.656 52.4887 141.873 52.3947 142.117 52.3356C142.36 52.2724 142.613 52.242 142.877 52.242C143.249 52.242 143.604 52.2951 143.941 52.4053C143.918 52.1805 143.874 51.9819 143.801 51.8085C143.709 51.5827 143.568 51.4203 143.384 51.3191C143.312 51.2829 143.232 51.2568 143.152 51.2382C143.072 51.2216 142.977 51.2106 142.868 51.2106H142.751C142.649 51.2173 142.551 51.235 142.45 51.2594C142.35 51.2863 142.251 51.3176 142.149 51.353C142.049 51.3883 141.949 51.4196 141.848 51.444C141.747 51.4718 141.65 51.4819 141.558 51.4819C141.459 51.4819 141.362 51.4608 141.269 51.4179C141.183 51.3674 141.108 51.2831 141.043 51.1688L141.023 51.125L141.043 51.0922C141.258 50.864 141.51 50.6744 141.8 50.534C142.09 50.3908 142.408 50.3127 142.751 50.2899C142.786 50.2815 142.815 50.2789 142.839 50.2789H142.933C143.261 50.2789 143.56 50.3386 143.836 50.4564C144.105 50.5752 144.342 50.7417 144.542 50.9505C144.95 51.3993 145.161 51.9886 145.173 52.7202V52.8086C145.173 53.5594 144.984 54.17 144.606 54.638C144.42 54.8703 144.198 55.0588 143.936 55.2055C143.675 55.3485 143.384 55.4395 143.06 55.4749C143.02 55.4824 142.977 55.4841 142.933 55.4841H142.794C142.645 55.4841 142.486 55.4723 142.321 55.447C142.154 55.4227 141.995 55.3728 141.839 55.3015C141.672 55.2374 141.523 55.1516 141.386 55.0452C141.251 54.9419 141.138 54.8063 141.043 54.6378C140.909 54.429 140.837 54.1739 140.83 53.8682V53.8044C140.83 53.5223 140.889 53.2881 141.002 53.0996C141.102 52.9115 141.255 52.748 141.461 52.6093ZM143.683 53.1304C143.591 53.1162 143.485 53.1017 143.367 53.0883C143.248 53.0741 143.128 53.0663 143.008 53.0663C142.907 53.0663 142.811 53.0722 142.719 53.084C142.625 53.0933 142.541 53.1153 142.459 53.1423C142.281 53.202 142.147 53.2911 142.053 53.4134C142.017 53.458 141.988 53.507 141.967 53.5607C141.946 53.6155 141.929 53.6752 141.925 53.741C141.918 53.7613 141.914 53.7949 141.914 53.8378C141.914 53.911 141.925 53.986 141.946 54.0701C141.967 54.1542 142.009 54.2325 142.074 54.3041C142.132 54.3758 142.218 54.4361 142.327 54.4877C142.435 54.5382 142.586 54.5636 142.773 54.5636C142.829 54.5636 142.87 54.5602 142.901 54.5535C143.104 54.5459 143.279 54.4877 143.427 54.3792C143.498 54.3354 143.558 54.2832 143.608 54.2218C143.659 54.1603 143.705 54.0939 143.737 54.0231C143.815 53.8849 143.869 53.7427 143.899 53.5978C143.928 53.4539 143.942 53.32 143.942 53.1988C143.936 53.1988 143.931 53.1988 143.928 53.1912C143.922 53.1878 143.915 53.1869 143.911 53.1869C143.883 53.1802 143.848 53.171 143.812 53.1658C143.778 53.1591 143.734 53.1472 143.683 53.1304Z" fill="white"/>
<path d="M148.813 54.9421C148.684 55.182 148.534 55.3452 148.362 55.4319C148.192 55.5186 148.028 55.5685 147.878 55.5844C147.702 55.5952 147.521 55.5685 147.343 55.4977C147.285 55.3664 147.207 55.1837 147.114 54.9497C147.014 54.7148 146.906 54.4519 146.792 54.1633C146.672 53.8736 146.545 53.5697 146.413 53.2501C146.282 52.9326 146.155 52.6287 146.037 52.3358C145.923 52.0412 145.815 51.7759 145.716 51.5376C145.621 51.2977 145.546 51.1142 145.497 50.9837C145.465 50.9181 145.44 50.8534 145.412 50.7902C145.382 50.7245 145.358 50.6639 145.336 50.6052C145.309 50.5411 145.283 50.4747 145.262 50.4098C145.475 50.3595 145.679 50.3418 145.875 50.3552C146.037 50.3686 146.203 50.4191 146.374 50.5025C146.539 50.5834 146.672 50.7424 146.773 50.974C146.805 51.0549 146.846 51.1584 146.895 51.293C146.95 51.4269 147.006 51.5743 147.067 51.7326C147.132 51.8915 147.193 52.0593 147.261 52.2317C147.329 52.4059 147.395 52.5802 147.461 52.7536C147.611 53.1502 147.773 53.582 147.954 54.0442C148.125 53.5818 148.292 53.15 148.449 52.7536C148.51 52.5802 148.579 52.4059 148.654 52.2317C148.726 52.0591 148.79 51.8915 148.851 51.7326C148.91 51.5743 148.967 51.4269 149.02 51.293C149.066 51.1584 149.108 51.0549 149.144 50.974C149.238 50.7426 149.372 50.5834 149.544 50.5025C149.715 50.4191 149.881 50.3686 150.047 50.3552C150.238 50.3416 150.444 50.3595 150.657 50.4098C150.63 50.468 150.601 50.5286 150.574 50.5942C150.551 50.6516 150.527 50.7161 150.499 50.7844C150.47 50.8511 150.444 50.9184 150.422 50.9839C150.371 51.1196 150.303 51.3014 150.22 51.5212C150.132 51.7425 150.042 51.9791 149.946 52.2375C149.849 52.495 149.744 52.7577 149.634 53.0288C149.522 53.2999 149.416 53.5609 149.32 53.8111C149.219 54.0602 149.121 54.2832 149.031 54.4827C148.945 54.682 148.871 54.8343 148.813 54.9421Z" fill="white"/>
<path d="M154.767 54.3242C154.853 54.3756 154.936 54.4631 155.015 54.5852L155.045 54.6188L155.015 54.6516C154.78 54.9135 154.497 55.1153 154.173 55.2655C153.848 55.4119 153.496 55.4844 153.118 55.4844C152.786 55.4844 152.478 55.4203 152.187 55.2866C151.899 55.1518 151.642 54.9667 151.42 54.7291C151.207 54.495 151.035 54.2213 150.911 53.909C150.787 53.5924 150.722 53.2551 150.722 52.8947C150.722 52.5308 150.779 52.1933 150.891 51.8801C151.001 51.5626 151.162 51.29 151.365 51.0484C151.574 50.8153 151.829 50.6343 152.123 50.4954C152.421 50.3591 152.751 50.2901 153.118 50.2901C153.314 50.2901 153.538 50.3205 153.774 50.3809C154.018 50.4441 154.24 50.5418 154.446 50.6747C154.653 50.8103 154.826 50.9837 154.964 51.2018C155.097 51.4181 155.164 51.6765 155.164 51.9821C155.164 52.2793 155.094 52.5192 154.942 52.7044C154.792 52.8882 154.611 53.0336 154.403 53.1373C154.195 53.2417 153.977 53.3166 153.743 53.3545C153.511 53.3933 153.31 53.4134 153.138 53.4134C152.874 53.4134 152.64 53.3983 152.444 53.3653C152.248 53.334 152.113 53.3079 152.044 53.2937C152.071 53.5549 152.129 53.7686 152.213 53.9284C152.3 54.0937 152.398 54.2198 152.504 54.3158C152.611 54.4085 152.717 54.4724 152.829 54.5043C152.934 54.5362 153.029 54.5533 153.118 54.5533C153.266 54.5533 153.409 54.5382 153.546 54.5104C153.682 54.4817 153.805 54.4489 153.911 54.412C154.018 54.3758 154.118 54.3404 154.215 54.3042C154.313 54.2671 154.405 54.2485 154.501 54.2485C154.602 54.2485 154.688 54.2729 154.767 54.3242ZM153.118 51.2111C153.036 51.2177 152.946 51.2387 152.839 51.2715C152.728 51.3042 152.625 51.3633 152.52 51.4492C152.417 51.5374 152.323 51.6603 152.236 51.8195C152.151 51.9787 152.09 52.1808 152.053 52.4264C152.169 52.4618 152.331 52.4989 152.541 52.53C152.753 52.5619 152.963 52.5679 153.174 52.5442C153.387 52.5239 153.569 52.4616 153.732 52.3624C153.895 52.2612 153.982 52.0904 153.996 51.8529C154.01 51.6703 153.939 51.5163 153.787 51.384C153.634 51.2555 153.409 51.1983 153.118 51.2111Z" fill="white"/>
<path d="M158.172 54.401C158.186 54.5904 158.171 54.7595 158.131 54.9137C158.093 55.0398 158.019 55.1662 157.913 55.2866C157.806 55.4035 157.639 55.4708 157.408 55.4844C157.185 55.5087 156.994 55.4835 156.827 55.4153C156.663 55.3487 156.526 55.2512 156.414 55.13C156.305 55.0055 156.224 54.8615 156.168 54.6932C156.113 54.5298 156.09 54.3548 156.09 54.1745V48.8893C156.081 48.6727 156.076 48.4984 156.073 48.363C156.065 48.231 156.063 48.1249 156.057 48.0455C156.051 47.9573 156.042 47.8898 156.037 47.8376C156.479 47.8376 156.817 47.9321 157.053 48.1188C157.291 48.3084 157.408 48.6149 157.408 49.0441V54.0443C157.408 54.2168 157.441 54.3415 157.507 54.4172C157.568 54.4944 157.645 54.5384 157.731 54.5535C157.817 54.5671 157.903 54.5593 157.988 54.5257C158.073 54.4942 158.136 54.4521 158.172 54.401Z" fill="white"/>
<path d="M162.774 54.3268C162.774 54.5431 162.777 54.72 162.781 54.8563C162.781 54.9954 162.788 55.1037 162.795 55.1822C162.804 55.2706 162.808 55.3344 162.816 55.3791C162.372 55.3791 162.035 55.2866 161.801 55.0961C161.569 54.9076 161.453 54.6011 161.453 54.1743L161.463 50.322C161.463 49.9616 161.517 49.6232 161.619 49.3141C161.725 49.0027 161.878 48.7272 162.088 48.4891C162.287 48.251 162.531 48.0629 162.815 47.931C163.105 47.7953 163.427 47.7282 163.792 47.7282C164.007 47.7282 164.191 47.7642 164.341 47.8376C164.505 47.9025 164.634 48.0112 164.727 48.1652C164.784 48.2806 164.813 48.3942 164.813 48.5111C164.813 48.5912 164.804 48.6677 164.778 48.7385L164.758 48.8034L164.705 48.7831C164.606 48.7477 164.489 48.715 164.354 48.6904C164.224 48.6643 164.076 48.6515 163.911 48.6515C163.85 48.6515 163.781 48.6582 163.695 48.6727C163.61 48.6854 163.516 48.7199 163.418 48.7704C163.315 48.8226 163.223 48.891 163.134 48.9824C163.045 49.0734 162.968 49.1946 162.903 49.3454C162.86 49.4474 162.825 49.5652 162.801 49.7041C162.777 49.8412 162.76 49.997 162.76 50.1704V50.2901H164.211C164.211 50.6143 164.122 50.8752 163.945 51.0704C163.763 51.2656 163.51 51.3633 163.183 51.3633H162.76L162.774 54.3268Z" fill="white"/>
<path d="M168.441 51.0601C168.661 51.2923 168.834 51.5626 168.961 51.8801C169.084 52.1932 169.146 52.5317 169.146 52.8921C169.146 53.2551 169.091 53.5924 168.975 53.909C168.862 54.2213 168.702 54.495 168.494 54.7264C168.288 54.9665 168.032 55.1533 167.737 55.2907C167.442 55.4278 167.11 55.4977 166.744 55.4977C166.414 55.4977 166.107 55.4278 165.815 55.2907C165.527 55.1533 165.27 54.9665 165.05 54.7264C164.833 54.495 164.666 54.2213 164.54 53.909C164.414 53.5924 164.355 53.2551 164.355 52.8921C164.355 52.5317 164.408 52.1932 164.518 51.8801C164.627 51.5626 164.787 51.2923 164.997 51.0601C165.201 50.8219 165.457 50.6349 165.752 50.4952C166.046 50.3589 166.38 50.2899 166.744 50.2899C167.08 50.2899 167.395 50.3589 167.684 50.4952C167.974 50.6352 168.225 50.8219 168.441 51.0601ZM166.744 54.5632C166.837 54.5632 166.946 54.5429 167.072 54.4982C167.194 54.4553 167.317 54.3729 167.429 54.2483C167.547 54.1288 167.645 53.9554 167.719 53.7406C167.798 53.5225 167.84 53.2397 167.84 52.8918C167.84 52.5439 167.798 52.2629 167.719 52.0408C167.644 51.8208 167.547 51.6499 167.429 51.5313C167.317 51.4127 167.194 51.3301 167.072 51.2898C166.946 51.2442 166.837 51.2233 166.744 51.2233C166.65 51.2233 166.544 51.2442 166.418 51.2898C166.295 51.3303 166.172 51.4127 166.058 51.5313C165.943 51.6502 165.847 51.821 165.769 52.0408C165.69 52.2629 165.649 52.5442 165.649 52.8918C165.649 53.2395 165.69 53.5225 165.769 53.7406C165.847 53.9552 165.943 54.1288 166.058 54.2483C166.172 54.3729 166.295 54.4553 166.418 54.4982C166.544 54.5431 166.65 54.5632 166.744 54.5632Z" fill="white"/>
<path d="M169.952 52.7642C169.952 52.2776 170.022 51.8844 170.164 51.5762C170.3 51.2663 170.482 51.0273 170.706 50.8531C170.925 50.6777 171.176 50.5634 171.45 50.5019C171.725 50.4387 172 50.4092 172.269 50.4092H172.797C172.832 50.5617 172.839 50.7012 172.82 50.8319C172.806 50.9406 172.755 51.0439 172.672 51.1451C172.593 51.2484 172.454 51.3101 172.269 51.3301C172.149 51.3444 172.026 51.3713 171.913 51.4127C171.796 51.4516 171.687 51.5223 171.596 51.6172C171.502 51.7149 171.423 51.8553 171.365 52.0356C171.304 52.2166 171.273 52.459 171.273 52.7638V54.3348C171.273 54.5529 171.273 54.7286 171.276 54.8609C171.283 54.9957 171.286 55.1024 171.295 55.1816C171.3 55.27 171.309 55.3339 171.317 55.3785C170.879 55.3785 170.542 55.286 170.306 55.0998C170.071 54.9156 169.952 54.6074 169.952 54.1737V52.7642H169.952Z" fill="white"/>
<path d="M178.034 54.401C178.05 54.5904 178.034 54.7595 177.992 54.9137C177.955 55.0398 177.883 55.1662 177.777 55.2866C177.666 55.4035 177.5 55.4708 177.274 55.4844C177.05 55.5087 176.857 55.4835 176.692 55.4153C176.527 55.3487 176.393 55.2512 176.278 55.13C176.168 55.0055 176.087 54.8615 176.032 54.6932C175.977 54.5298 175.95 54.3548 175.95 54.1745V48.8893C175.945 48.6727 175.939 48.4984 175.935 48.363C175.933 48.231 175.927 48.1249 175.919 48.0455C175.913 47.9573 175.905 47.8898 175.898 47.8376C176.341 47.8376 176.682 47.9321 176.917 48.1188C177.153 48.3084 177.274 48.6149 177.274 49.0441V54.0443C177.274 54.2168 177.303 54.3415 177.369 54.4172C177.431 54.4944 177.507 54.5384 177.594 54.5535C177.678 54.5671 177.767 54.5593 177.852 54.5257C177.938 54.4942 177.999 54.4521 178.034 54.401Z" fill="white"/>
<path d="M182.789 54.3242C182.873 54.3756 182.956 54.4631 183.036 54.5852L183.067 54.6188L183.036 54.6516C182.794 54.9135 182.519 55.1153 182.191 55.2655C181.866 55.4119 181.514 55.4844 181.132 55.4844C180.806 55.4844 180.496 55.4203 180.208 55.2866C179.92 55.1518 179.661 54.9667 179.44 54.7291C179.228 54.495 179.054 54.2213 178.931 53.909C178.802 53.5924 178.741 53.2551 178.741 52.8947C178.741 52.5308 178.795 52.1933 178.908 51.8801C179.022 51.5626 179.179 51.29 179.386 51.0484C179.594 50.8153 179.844 50.6343 180.142 50.4954C180.439 50.3591 180.77 50.2901 181.132 50.2901C181.333 50.2901 181.557 50.3205 181.793 50.3809C182.034 50.4441 182.258 50.5418 182.464 50.6747C182.672 50.8103 182.842 50.9837 182.981 51.2018C183.119 51.4181 183.186 51.6765 183.186 51.9821C183.186 52.2793 183.108 52.5192 182.961 52.7044C182.808 52.8882 182.629 53.0336 182.422 53.1373C182.216 53.2417 181.994 53.3166 181.761 53.3545C181.531 53.3933 181.329 53.4134 181.155 53.4134C180.891 53.4134 180.662 53.3983 180.464 53.3653C180.267 53.334 180.134 53.3079 180.063 53.2937C180.09 53.5549 180.149 53.7686 180.231 53.9284C180.32 54.0937 180.417 54.2198 180.522 54.3158C180.63 54.4085 180.739 54.4724 180.845 54.5043C180.951 54.5362 181.049 54.5533 181.132 54.5533C181.285 54.5533 181.429 54.5382 181.566 54.5104C181.699 54.4817 181.822 54.4489 181.931 54.412C182.039 54.3758 182.138 54.3404 182.235 54.3042C182.332 54.2671 182.425 54.2485 182.519 54.2485C182.619 54.2485 182.708 54.2729 182.789 54.3242ZM181.132 51.2111C181.056 51.2177 180.961 51.2387 180.856 51.2715C180.75 51.3042 180.644 51.3633 180.539 51.4492C180.435 51.5374 180.341 51.6603 180.256 51.8195C180.168 51.9787 180.109 52.1808 180.072 52.4264C180.186 52.4618 180.351 52.4989 180.559 52.53C180.773 52.5619 180.983 52.5679 181.193 52.5442C181.406 52.5239 181.591 52.4616 181.75 52.3624C181.912 52.2612 182.001 52.0904 182.015 51.8529C182.029 51.6703 181.959 51.5163 181.806 51.384C181.654 51.2555 181.429 51.1983 181.132 51.2111Z" fill="white"/>
<path d="M186.339 54.1087C186.352 53.9849 186.317 53.8838 186.237 53.7988C186.156 53.7162 186.039 53.6353 185.883 53.5605C185.73 53.4841 185.549 53.4056 185.341 53.3163C185.135 53.2298 184.916 53.1151 184.688 52.9697C184.515 52.8677 184.373 52.7482 184.263 52.6076C184.152 52.4653 184.073 52.3156 184.021 52.1495C183.972 51.9871 183.95 51.8212 183.955 51.6504C183.963 51.4813 184.006 51.3129 184.076 51.1461C184.146 50.9878 184.239 50.8532 184.356 50.7454C184.468 50.6369 184.595 50.5468 184.736 50.4786C184.874 50.4105 185.015 50.3626 185.16 50.3322C185.303 50.3043 185.433 50.2901 185.557 50.2901H185.682C186.063 50.3127 186.411 50.4053 186.727 50.5731C187.041 50.7381 187.31 50.9611 187.532 51.2333L187.563 51.2658L187.532 51.3105C187.457 51.4125 187.379 51.4865 187.296 51.5378C187.216 51.5883 187.127 51.6129 187.025 51.6129C186.924 51.6129 186.83 51.5935 186.735 51.5555C186.642 51.5145 186.542 51.4731 186.434 51.4285C186.298 51.3711 186.175 51.3241 186.054 51.2835C185.937 51.243 185.818 51.2223 185.696 51.2223C185.537 51.2223 185.419 51.2574 185.341 51.3256C185.264 51.3937 185.215 51.4755 185.203 51.5689C185.187 51.708 185.23 51.8214 185.329 51.9125C185.431 52.0026 185.577 52.0869 185.77 52.1676C185.993 52.2621 186.228 52.3656 186.478 52.4741C186.73 52.5878 186.951 52.7241 187.143 52.8884C187.338 53.0517 187.486 53.2471 187.585 53.4736C187.685 53.7026 187.693 53.9804 187.616 54.3046C187.58 54.4357 187.52 54.5705 187.433 54.7105C187.347 54.8509 187.228 54.9799 187.075 55.0968C186.919 55.2113 186.733 55.3079 186.517 55.3839C186.297 55.4581 186.042 55.4984 185.749 55.4984C185.692 55.4984 185.646 55.4941 185.61 55.4848C185.268 55.4712 184.927 55.3813 184.594 55.2171C184.262 55.0487 183.986 54.8298 183.767 54.5537L183.732 54.5192L183.767 54.4771C183.8 54.42 183.841 54.3738 183.882 54.3359C183.925 54.3014 183.963 54.2677 184.001 54.239C184.086 54.1961 184.169 54.175 184.257 54.175C184.359 54.175 184.453 54.1961 184.546 54.2338C184.64 54.2735 184.74 54.3165 184.848 54.3568C184.947 54.409 185.059 54.4525 185.186 54.4879C185.31 54.525 185.449 54.5511 185.599 54.5638C185.857 54.5638 186.042 54.5149 186.151 54.4124C186.262 54.31 186.328 54.2088 186.339 54.1087Z" fill="white"/>
<path d="M190.812 54.1087C190.829 53.9849 190.795 53.8838 190.711 53.7988C190.63 53.7162 190.511 53.6353 190.356 53.5605C190.205 53.4841 190.023 53.4056 189.817 53.3163C189.609 53.2298 189.389 53.1151 189.162 52.9697C188.989 52.8677 188.85 52.7482 188.74 52.6076C188.627 52.4653 188.548 52.3156 188.495 52.1495C188.446 51.9871 188.425 51.8212 188.432 51.6504C188.44 51.4813 188.479 51.3129 188.548 51.1461C188.621 50.9878 188.715 50.8532 188.829 50.7454C188.943 50.6369 189.072 50.5468 189.21 50.4786C189.35 50.4105 189.491 50.3626 189.632 50.3322C189.778 50.3043 189.909 50.2901 190.032 50.2901H190.16C190.539 50.3127 190.886 50.4053 191.202 50.5731C191.517 50.7381 191.784 50.9611 192.006 51.2333L192.039 51.2658L192.006 51.3105C191.933 51.4125 191.854 51.4865 191.769 51.5378C191.693 51.5883 191.601 51.6129 191.504 51.6129C191.4 51.6129 191.305 51.5935 191.211 51.5555C191.118 51.5145 191.019 51.4731 190.912 51.4285C190.775 51.3711 190.65 51.3241 190.53 51.2835C190.411 51.243 190.293 51.2223 190.171 51.2223C190.013 51.2223 189.896 51.2574 189.817 51.3256C189.738 51.3937 189.69 51.4755 189.676 51.5689C189.665 51.708 189.707 51.8214 189.806 51.9125C189.909 52.0026 190.052 52.0869 190.246 52.1676C190.465 52.2621 190.703 52.3656 190.956 52.4741C191.204 52.5878 191.427 52.7241 191.619 52.8884C191.813 53.0517 191.96 53.2471 192.061 53.4736C192.161 53.7026 192.173 53.9804 192.092 54.3046C192.057 54.4357 191.997 54.5705 191.908 54.7105C191.827 54.8509 191.706 54.9799 191.55 55.0968C191.398 55.2113 191.208 55.3079 190.99 55.3839C190.775 55.4581 190.519 55.4984 190.225 55.4984C190.168 55.4984 190.122 55.4941 190.084 55.4848C189.744 55.4712 189.402 55.3813 189.072 55.2171C188.74 55.0487 188.459 54.8298 188.239 54.5537L188.205 54.5192L188.239 54.4771C188.275 54.42 188.317 54.3738 188.358 54.3359C188.402 54.3014 188.44 54.2677 188.474 54.239C188.559 54.1961 188.646 54.175 188.732 54.175C188.83 54.175 188.93 54.1961 189.023 54.2338C189.115 54.2735 189.215 54.3165 189.321 54.3568C189.423 54.409 189.535 54.4525 189.662 54.4879C189.788 54.525 189.925 54.5511 190.074 54.5638C190.333 54.5638 190.518 54.5149 190.627 54.4124C190.736 54.31 190.8 54.2088 190.812 54.1087Z" fill="white"/>
<path d="M133.085 9.74841C123.516 9.74841 115.76 17.5891 115.76 27.2624C115.76 36.9375 123.516 44.779 133.085 44.779C142.654 44.779 150.409 36.9377 150.409 27.2624C150.409 17.5889 142.653 9.74841 133.085 9.74841ZM133.085 36.1224C128.245 36.1224 124.322 32.156 124.322 27.2622C124.322 22.3708 128.245 18.4046 133.085 18.4046C137.925 18.4046 141.846 22.3708 141.846 27.2622C141.846 32.1562 137.924 36.1224 133.085 36.1224Z" fill="white"/>
<path d="M127.505 28.7961L125.054 27.5907L124.621 28.0294L125.801 29.41" fill="white"/>
<path d="M139.739 25.0053C139.739 25.0053 141.466 24.698 141.403 25.5314C141.403 25.5314 141.349 26.1006 140.22 26.6695C140.22 26.6695 129.909 30.1178 129.675 30.1314C129.675 30.1314 126.951 30.1845 125.965 29.6802L130.96 27.9485L128.54 25.0187L129.125 24.3898L134.807 26.6562L139.739 25.0053Z" fill="white"/>
<path d="M11.3295 11.3479H20.7402C23.1035 11.3479 25.2702 11.613 27.2422 12.1451C29.1667 12.662 30.7396 13.5595 31.9577 14.8383C33.1451 16.086 33.7406 17.7496 33.7406 19.8356C33.7406 21.4159 33.3499 22.7941 32.5664 23.9651C31.7837 25.1513 30.7245 26.0343 29.3854 26.6119V26.7273C30.1531 27.0312 30.8676 27.4395 31.5306 27.9582C32.1602 28.4601 32.7264 29.0612 33.2228 29.7607C33.6883 30.4308 34.0554 31.1844 34.3287 32.0203C34.5843 32.8716 34.7136 33.7691 34.7136 34.7136C34.7136 37.4212 33.7201 39.596 31.7322 41.2375C29.732 42.8959 26.7067 43.726 22.6587 43.726H11.3295V11.3479ZM19.5678 17.6907V24.2381H21.6446C22.9229 24.2381 23.8871 23.9409 24.5342 23.3482C25.1803 22.7874 25.5027 21.9666 25.5027 20.8849C25.5027 19.7442 25.098 18.9224 24.2843 18.4199C23.4566 17.9333 22.4789 17.6909 21.3514 17.6909H19.5678V17.6907ZM19.5678 30.6046V37.36H21.757C24.8996 37.36 26.4753 36.2563 26.4753 34.0497C26.4753 32.6663 26.0531 31.7462 25.2121 31.2898C24.3835 30.8343 23.1944 30.6046 21.6446 30.6046H19.5678Z" fill="white"/>
<path d="M42.5427 42.8364C40.4966 41.7412 38.8719 40.2435 37.6687 38.3416C36.4495 36.4235 35.8408 34.2777 35.8408 31.9061C35.8408 30.1245 36.1939 28.4679 36.9017 26.9314C37.6096 25.3949 38.5779 24.0656 39.8129 22.9382C41.0611 21.7975 42.4834 20.9227 44.078 20.314C45.7036 19.7062 47.364 19.4015 49.0671 19.4015C50.7825 19.4015 52.452 19.7062 54.0774 20.314C55.6563 20.8934 57.0777 21.7595 58.3411 22.9162C59.5902 24.0721 60.563 25.4108 61.2539 26.9312C61.9609 28.4677 62.3151 30.1245 62.3151 31.9059C62.3151 33.7152 61.9686 35.3744 61.2757 36.8823C60.5847 38.402 59.607 39.748 58.3413 40.9192C57.063 42.0742 55.6407 42.9507 54.0776 43.5425C52.4964 44.168 50.8249 44.4797 49.0673 44.4797C46.7648 44.4799 44.5896 43.9318 42.5427 42.8364ZM44.8452 36.1056C46.0335 37.2768 47.4425 37.8602 49.0673 37.8602C50.707 37.8602 52.1207 37.2768 53.3109 36.1056C54.5118 34.9327 55.1138 33.5351 55.1138 31.9061C55.1138 30.8419 54.8364 29.8618 54.2803 28.9611C53.7239 28.0646 52.9802 27.3489 52.0452 26.8177C51.1274 26.2856 50.1348 26.0205 49.0675 26.0205C48.0266 26.0205 47.0432 26.2856 46.1096 26.8177C45.1763 27.3489 44.4318 28.0646 43.8754 28.9611C43.3184 29.8621 43.0393 30.8419 43.0393 31.9061C43.0391 33.5351 43.6411 34.9329 44.8452 36.1056Z" fill="white"/>
<path d="M70.147 42.8364C68.0992 41.7412 66.4746 40.2435 65.2729 38.3416C64.0529 36.4235 63.4434 34.2777 63.4434 31.9061C63.4434 30.1245 63.7973 28.4679 64.5034 26.9314C65.2096 25.3949 66.1796 24.0656 67.4146 22.9382C68.6645 21.7975 70.0853 20.9227 71.6823 20.314C73.3054 19.7062 74.9683 19.4015 76.6688 19.4015C78.3842 19.4015 80.0537 19.7062 81.6783 20.314C83.2597 20.8934 84.6794 21.7595 85.9451 22.9162C87.1934 24.0721 88.1645 25.4108 88.8554 26.9312C89.5618 28.4677 89.9163 30.1245 89.9163 31.9059C89.9163 33.7152 89.5716 35.3744 88.8778 36.8823C88.186 38.402 87.2057 39.748 85.9449 40.9192C84.6658 42.0742 83.2426 42.9507 81.6781 43.5425C80.0985 44.168 78.4296 44.4797 76.6686 44.4797C74.3673 44.4799 72.1928 43.9318 70.147 42.8364ZM72.4469 36.1056C73.636 37.2768 75.0449 37.8602 76.669 37.8602C78.3087 37.8602 79.7233 37.2768 80.9109 36.1056C82.1158 34.9327 82.7181 33.5351 82.7181 31.9061C82.7181 30.8419 82.4382 29.8618 81.8811 28.9611C81.3256 28.0646 80.5805 27.3489 79.6478 26.8177C78.7294 26.2856 77.7367 26.0205 76.6692 26.0205C75.6298 26.0205 74.6449 26.2856 73.713 26.8177C72.7803 27.3489 72.0343 28.0646 71.4788 28.9611C70.9233 29.8621 70.6427 30.8419 70.6427 31.9061C70.6425 33.5351 71.2443 34.9329 72.4469 36.1056Z" fill="white"/>
<path d="M91.0444 43.7263V11.3697L98.2681 11.3479V29.2357H98.3573L105.828 20.383H114.293L105.939 30.3999L115.759 43.7263H106.755L98.2681 32.2708V43.7263H91.0444Z" fill="white"/>
<path d="M157.958 26.4111H153.196L154.822 20.16H157.958V11.1687L165.158 11.2142V20.1603H169.942L168.342 26.4114H165.158V34.1466C165.158 36.2152 166.437 37.2491 168.995 37.2491C169.822 37.2491 170.454 37.1497 170.89 36.9528V43.995C170.513 44.0556 168.157 44.0878 167.796 44.0878C165.643 44.0878 163.768 43.9497 162.337 43.2501C160.891 42.5512 159.803 41.4938 159.063 40.0804C158.327 38.6795 157.958 36.8939 157.958 34.7175V26.4111H157.958Z" fill="white"/>
<path d="M183.45 27.3271C183.086 27.0795 182.615 26.9397 182.034 26.9087H181.644C179.872 26.9846 178.987 28.2297 178.987 30.6518V43.9924H172.017V30.6518C172.017 24.2383 175.228 20.8707 181.644 20.5465H182.034C182.513 20.5616 182.984 20.6063 183.45 20.6796V27.3271Z" fill="white"/>
<path d="M191.933 16.0938C191.582 16.6908 191.101 17.1765 190.495 17.5477C189.885 17.9223 189.214 18.1059 188.479 18.1059C187.742 18.1059 187.08 17.9282 186.489 17.5729C185.879 17.2007 185.399 16.7074 185.048 16.0938C184.682 15.4455 184.498 14.7585 184.498 14.0336C184.498 13.2884 184.675 12.6099 185.024 11.9963C185.409 11.3656 185.896 10.8706 186.489 10.5163C187.08 10.1628 187.742 9.98505 188.479 9.98505C189.214 9.98505 189.885 10.1628 190.495 10.5163C191.084 10.8709 191.564 11.3656 191.933 11.9963C192.285 12.6101 192.462 13.2886 192.462 14.0336C192.462 14.8073 192.285 15.4933 191.933 16.0938ZM192.201 20.6501V44.0386H185.003V20.6736L192.201 20.6501Z" fill="white"/>
<path d="M193.442 31.8135C193.455 29.4865 194.065 27.3962 195.27 25.5407C196.473 23.6396 198.097 22.1478 200.145 21.0676C202.19 19.973 204.365 19.4241 206.668 19.4241C208.427 19.4241 210.099 19.7356 211.678 20.3613C213.242 20.938 214.665 21.8126 215.944 22.9846C217.208 24.154 218.185 25.4943 218.879 27.0015C219.567 28.5058 219.916 30.1662 219.916 31.9738C219.916 33.7394 219.562 35.3893 218.857 36.925C218.162 38.4455 217.194 39.7782 215.944 40.9196C214.694 42.0746 213.273 42.9511 211.678 43.543C210.067 44.1374 208.397 44.4329 206.668 44.4329C204.967 44.4329 203.305 44.1374 201.68 43.543L201.16 43.3156L200.64 43.0866V55.0524L193.442 55.0289V31.8135ZM200.64 31.9736C200.64 33.0554 200.921 34.0277 201.477 34.8958C202.03 35.7942 202.778 36.5081 203.711 37.0393C204.627 37.574 205.615 37.8393 206.668 37.8393C207.72 37.8393 208.714 37.5742 209.646 37.0393C210.579 36.5081 211.325 35.7944 211.879 34.8958C212.438 34.0118 212.716 33.0395 212.716 31.9736C212.716 30.3622 212.115 28.9611 210.91 27.7749C209.722 26.6057 208.309 26.0188 206.668 26.0188C205.043 26.0188 203.634 26.6057 202.447 27.7749C201.242 28.9469 200.64 30.3454 200.64 31.9736Z" fill="white"/>
<path d="M217.628 41.2198C217.817 40.911 218.061 40.6722 218.359 40.5031C218.664 40.3267 218.988 40.2383 219.33 40.2383C219.672 40.2383 219.995 40.3265 220.301 40.5031C220.599 40.6871 220.839 40.9298 221.021 41.2308C221.202 41.525 221.293 41.8483 221.293 42.2014C221.293 42.7898 221.104 43.2749 220.726 43.657C220.34 44.0466 219.875 44.2415 219.33 44.2415C218.966 44.2415 218.635 44.1533 218.337 43.9767C218.032 43.8003 217.792 43.554 217.617 43.2378C217.443 42.9145 217.355 42.5689 217.355 42.2012C217.355 41.8412 217.446 41.5143 217.628 41.2198Z" fill="white"/>
<path d="M231.164 43.6128C230.931 43.7161 230.761 43.7858 230.651 43.8225C229.881 44.1238 229.074 44.2748 228.23 44.2748C227.117 44.2748 226.067 44.0136 225.078 43.4916C224.089 42.9623 223.304 42.242 222.722 41.3303C222.133 40.4039 221.838 39.371 221.838 38.2316C221.838 37.3714 222.009 36.5702 222.351 35.8276C222.693 35.0925 223.162 34.4528 223.758 33.9089C224.347 33.3649 225.03 32.9495 225.809 32.6629C226.586 32.3616 227.394 32.2108 228.23 32.2108C229.059 32.2108 229.866 32.3579 230.651 32.6519C231.437 32.9461 232.121 33.3651 232.702 33.9091C233.313 34.4679 233.786 35.1076 234.12 35.8278C234.462 36.5704 234.633 37.3716 234.633 38.2318L234.622 43.9771L231.164 43.9441V43.6128H231.164ZM225.721 36.8089C225.452 37.2429 225.318 37.717 225.318 38.2316C225.318 39.0108 225.608 39.6833 226.19 40.2495C226.765 40.8083 227.445 41.0876 228.23 41.0876C229.022 41.0876 229.706 40.8083 230.281 40.2495C230.862 39.6833 231.153 39.0108 231.153 38.2316C231.153 37.717 231.019 37.2429 230.75 36.8089C230.48 36.3752 230.121 36.0297 229.67 35.7724C229.226 35.5224 228.746 35.3973 228.23 35.3973C227.728 35.3973 227.252 35.5224 226.801 35.7724C226.35 36.0297 225.99 36.3752 225.721 36.8089Z" fill="white"/>
<path d="M246.947 35.8386C247.274 36.5814 247.438 37.3753 247.438 38.2204V38.3198C247.438 38.3567 247.434 38.3968 247.427 38.441L247.405 38.6284H246.053V38.6506H238.548C238.635 39.2681 238.901 39.8013 239.344 40.2497C239.904 40.8085 240.559 41.0878 241.308 41.0878C242.064 41.0878 242.718 40.8085 243.271 40.2497L243.293 40.2275L243.326 40.1835L243.358 40.1505L243.38 40.1175L245.256 42.8301C244.718 43.2712 244.173 43.6059 243.62 43.8335C242.878 44.1274 242.108 44.2748 241.308 44.2748C240.224 44.2748 239.217 44.0136 238.286 43.4916C237.334 42.9623 236.581 42.2383 236.029 41.3193C235.461 40.4005 235.178 39.3674 235.178 38.2206C235.178 37.3606 235.341 36.5665 235.669 35.8388C235.996 35.1038 236.446 34.464 237.021 33.9201C237.603 33.3615 238.257 32.9387 238.985 32.6519C239.734 32.3579 240.508 32.2108 241.308 32.2108C242.108 32.2108 242.878 32.3579 243.62 32.6519C244.355 32.9387 245.013 33.3576 245.595 33.9091C246.169 34.4455 246.62 35.0887 246.947 35.8386ZM241.308 35.3973C240.821 35.3973 240.363 35.5224 239.934 35.7724C239.672 35.9341 239.417 36.1621 239.17 36.4561H243.446C243.199 36.1621 242.944 35.9341 242.683 35.7724C242.253 35.5224 241.795 35.3973 241.308 35.3973Z" fill="white"/>
</svg>
