<svg width="35" height="40" viewBox="0 0 35 40" fill="none" xmlns="http://www.w3.org/2000/svg">
<path fill-rule="evenodd" clip-rule="evenodd" d="M32.5 5H30V8.75C30 9.45 29.45 10 28.75 10H23.75C23.05 10 22.5 9.45 22.5 8.75V5H15V8.75C15 9.45 14.45 10 13.75 10H8.75C8.05 10 7.5 9.45 7.5 8.75V5H5C3.625 5 2.5 6.125 2.5 7.5V35C2.5 36.375 3.625 37.5 5 37.5H32.5C33.875 37.5 35 36.375 35 35V7.5C35 6.125 33.875 5 32.5 5ZM32.5 35H5V12.5H32.5V35ZM12.5 7.5H10V2.5H12.5V7.5ZM27.5 7.5H25V2.5H27.5V7.5ZM15 17.5H12.5V15H15V17.5ZM20 17.5H17.5V15H20V17.5ZM25 17.5H22.5V15H25V17.5ZM30 17.5H27.5V15H30V17.5ZM10 22.5H7.5V20H10V22.5ZM15 22.5H12.5V20H15V22.5ZM20 22.5H17.5V20H20V22.5ZM25 22.5H22.5V20H25V22.5ZM30 22.5H27.5V20H30V22.5ZM10 27.5H7.5V25H10V27.5ZM15 27.5H12.5V25H15V27.5ZM20 27.5H17.5V25H20V27.5ZM25 27.5H22.5V25H25V27.5ZM30 27.5H27.5V25H30V27.5ZM10 32.5H7.5V30H10V32.5ZM15 32.5H12.5V30H15V32.5ZM20 32.5H17.5V30H20V32.5ZM25 32.5H22.5V30H25V32.5Z" fill="black"/>
</svg>
