<svg xmlns="http://www.w3.org/2000/svg" viewBox="0 0 32 32"><path fill="#f15743" d="M24.5 10h-2a.5.5 0 0 1-.5-.5v-2a.5.5 0 0 1 .5-.5h2a.5.5 0 0 1 .5.5v2a.5.5 0 0 1-.5.5zM23 9h1V8h-1v1z"/><path fill="#2c4355" d="M10.5 11h-3a.5.5 0 0 1-.5-.5v-3a.5.5 0 0 1 .5-.5h3a.5.5 0 0 1 .5.5v3a.5.5 0 0 1-.5.5zM8 10h2V8H8v2zM15.5 11h-3a.5.5 0 0 1-.5-.5v-3a.5.5 0 0 1 .5-.5h3a.5.5 0 0 1 .5.5v3a.5.5 0 0 1-.5.5zM13 10h2V8h-2v2zM20.5 11h-3a.5.5 0 0 1-.5-.5v-3a.5.5 0 0 1 .5-.5h3a.5.5 0 0 1 .5.5v3a.5.5 0 0 1-.5.5zM18 10h2V8h-2v2zM10.5 16h-3a.5.5 0 0 1-.5-.5v-3a.5.5 0 0 1 .5-.5h3a.5.5 0 0 1 .5.5v3a.5.5 0 0 1-.5.5zM8 15h2v-2H8v2zM15.5 16h-3a.5.5 0 0 1-.5-.5v-3a.5.5 0 0 1 .5-.5h3a.5.5 0 0 1 .5.5v3a.5.5 0 0 1-.5.5zM13 15h2v-2h-2v2zM20.5 16h-3a.5.5 0 0 1-.5-.5v-3a.5.5 0 0 1 .5-.5h3a.5.5 0 0 1 .5.5v3a.5.5 0 0 1-.5.5zM18 15h2v-2h-2v2zM10.5 21h-3a.5.5 0 0 1-.5-.5v-3a.5.5 0 0 1 .5-.5h3a.5.5 0 0 1 .5.5v3a.5.5 0 0 1-.5.5zM8 20h2v-2H8v2zM15.5 21h-3a.5.5 0 0 1-.5-.5v-3a.5.5 0 0 1 .5-.5h3a.5.5 0 0 1 .5.5v3a.5.5 0 0 1-.5.5zM13 20h2v-2h-2v2zM20.5 21h-3a.5.5 0 0 1-.5-.5v-3a.5.5 0 0 1 .5-.5h3a.5.5 0 0 1 .5.5v3a.5.5 0 0 1-.5.5zM18 20h2v-2h-2v2z"/><path fill="#2c4355" d="M22.5 29h-17a.5.5 0 0 1-.5-.5v-23a.5.5 0 0 1 .5-.5h17a.5.5 0 0 1 .5.5v23a.5.5 0 0 1-.5.5zM6 28h16V6H6v22z"/><path fill="#2c4355" d="M20.5 6h-13a.5.5 0 0 1-.5-.5v-2a.5.5 0 0 1 .5-.5h13a.5.5 0 0 1 .5.5v2a.5.5 0 0 1-.5.5zM8 5h12V4H8v1z"/><path fill="#f15743" d="M28.5 16h-4a.5.5 0 0 1-.5-.5v-9a.5.5 0 0 1 .5-.5h4a.5.5 0 0 1 .5.5v9a.5.5 0 0 1-.5.5zM25 15h3V7h-3v8z"/><path fill="#f15743" d="M26.5 14a.5.5 0 0 1-.5-.5v-5a.5.5 0 0 1 1 0v5a.5.5 0 0 1-.5.5zM17.5 29h-6a.5.5 0 0 1-.5-.5v-6a.5.5 0 0 1 .5-.5h6a.5.5 0 0 1 .5.5v6a.5.5 0 0 1-.5.5zM12 28h5v-5h-5v5z"/><path fill="#f15743" d="M14.5 29a.5.5 0 0 1-.5-.5v-6a.5.5 0 0 1 1 0v6a.5.5 0 0 1-.5.5z"/><path fill="#f15743" d="M18.5 23h-8a.5.5 0 0 1 0-1h8a.5.5 0 0 1 0 1z"/><path fill="#2c4355" d="M28.5 29h-25a.5.5 0 0 1 0-1h25a.5.5 0 0 1 0 1z"/></svg>