<?xml version="1.0" encoding="UTF-8"?>
<svg width="752pt" height="752pt" version="1.1" viewBox="0 0 752 752" xmlns="http://www.w3.org/2000/svg">
 <g>
  <path d="m346.16 368.61c1.5273 2.2617 4.6602 2.6172 6.1758 0.70312l7.8906-9.9688c1.9062-2.4062 2.3281-5.7695 1.125-8.918l-25.699-67.41 23.141-19.492c11.031-8.4922 15.367-16.66 16.473-23.547 2.3555-14.672-10.035-27.062-24.703-24.664-6.8711 1.125-15.02 5.4688-23.5 16.484l-19.488 23.141-67.41-25.695c-3.1523-1.2031-6.5117-0.78125-8.918 1.125l-9.9688 7.8906c-1.9141 1.5156-1.5586 4.6484 0.70312 6.1758l59.492 41.496-26.082 30.969-22.066-5.7227c-2.3047-0.59766-4.7578-0.10938-6.6562 1.3242l-5.25 3.9609c-1.5039 1.1367-1.418 3.4219 0.17188 4.4375l20.102 12.875c-0.31641 0.60156-0.61328 1.2188-0.84375 1.8594-1.1289 3.1367-1.6016 7.7695 2.3164 11.734l0.054687 0.054687c3.9648 3.918 8.5977 3.4453 11.734 2.3164 0.64453-0.23047 1.2578-0.52344 1.8594-0.84375l12.875 20.102c1.0156 1.5859 3.3047 1.6758 4.4375 0.17188l3.9609-5.25c1.4336-1.9023 1.9219-4.3516 1.3242-6.6562l-5.7227-22.066 30.969-26.082zm-3.3281-137.14 1.3672-1.3672c4.4141-4.4141 11.574-4.4141 15.988 0 4.4141 4.4141 4.4141 11.574 0 15.988l-1.3672 1.3672c-0.82812 0.82812-2.168 0.82812-2.9961 0l-12.992-12.996c-0.82422-0.82422-0.82422-2.1641 0-2.9922z"/>
  <path d="m379.55 558.63c6.875-1.125 15.02-5.4688 23.5-16.484l19.488-23.141 67.41 25.699c3.1484 1.2031 6.5117 0.78125 8.918-1.125l9.9688-7.8906c1.9141-1.5156 1.5586-4.6484-0.69922-6.1758l-59.492-41.496 26.082-30.969 22.062 5.7227c2.3047 0.59766 4.7578 0.10937 6.6562-1.3242l5.25-3.9609c1.5039-1.1367 1.418-3.4219-0.17187-4.4375l-20.105-12.875c0.32031-0.60156 0.61328-1.2188 0.84375-1.8594 1.1289-3.1367 1.6016-7.7695-2.3164-11.734l-0.054687-0.054687c-3.9648-3.918-8.5977-3.4453-11.734-2.3164-0.64453 0.23047-1.2578 0.52344-1.8594 0.84375l-12.875-20.102c-1.0156-1.5898-3.3047-1.6758-4.4375-0.17188l-3.9609 5.25c-1.4336 1.9023-1.9219 4.3516-1.3242 6.6562l5.7227 22.066-30.969 26.082-41.496-59.492c-1.5273-2.2617-4.6602-2.6172-6.1758-0.70312l-7.8906 9.9688c-1.9062 2.4062-2.3281 5.7695-1.125 8.918l25.699 67.41-23.141 19.492c-11.031 8.4922-15.367 16.66-16.473 23.547-2.3594 14.664 10.035 27.055 24.699 24.656zm-9.6211-30.777 1.3672-1.3672c0.82812-0.82812 2.168-0.82812 2.9961 0l12.992 12.992c0.82812 0.82812 0.82812 2.168 0 2.9922l-1.3672 1.3672c-4.4141 4.4141-11.574 4.4141-15.988 0-4.418-4.4102-4.418-11.57 0-15.984z"/>
  <path d="m310.02 568.35c5.9336 0 11.918-0.41406 17.918-1.25l-3.4492-24.727c-31.926 4.4492-63.273-6.043-86.027-28.797-35.488-35.488-39.637-92.508-9.6523-132.64l-20-14.941c-18.047 24.152-26.852 54.098-24.801 84.32 2.0703 30.523 15.141 59.262 36.797 80.918 24.066 24.062 55.844 37.117 89.215 37.117z"/>
  <path d="m531.25 399.87c49.375-49.375 49.375-129.71 0-179.09-38.395-38.398-96.891-48.062-145.56-24.062l11.043 22.391c39.074-19.27 86.035-11.5 116.86 19.324 39.641 39.641 39.641 104.14 0 143.78l-8.6328 8.6289 17.656 17.652z"/>
 </g>
</svg>
