<svg width="16" height="23" viewBox="0 0 16 23" fill="none" xmlns="http://www.w3.org/2000/svg">
<path d="M10.854 12.7136L10.146 13.4922L13.286 16.9631H3.5C2.122 16.9631 1 15.7256 1 14.2058H0C0 16.3344 1.57 18.066 3.5 18.066H13.286L10.146 21.5369L10.854 22.3155L15.198 17.5146L10.854 12.7136Z" fill="#B51717"/>
<path d="M4.344 10.1835L5.052 9.40481L1.912 5.93394L11.698 5.93394C13.076 5.93394 14.198 7.17141 14.198 8.69123H15.198C15.198 6.5626 13.628 4.83102 11.698 4.83102L1.912 4.83102L5.052 1.36014L4.344 0.581485L-1.90735e-06 5.38248L4.344 10.1835Z" fill="#B51717"/>
</svg>
