<?xml version="1.0" encoding="UTF-8"?>
<svg width="700pt" height="700pt" version="1.1" viewBox="0 0 700 700" xmlns="http://www.w3.org/2000/svg">
 <g fill-rule="evenodd">
  <path d="m192.09 154.78s33.023-1.7891 74.723-4.0469l93.695 84.035 36.293-1.9648-55.266-86.121c339.85-18.41 256.87 237.79 97.441 246.43 213.33-11.559 306.68-323.56-100.45-301.5l45.664-91.613-36.293 1.9648-84.066 93.691c-60.777 3.293-72.773 3.9414-74.684 4.0469-22.781 1.2344-78.59 21.469-78.18 31.824 0.37109 10.41 58.352 24.488 81.121 23.254z"/>
  <path d="m507.83 405.23s-33.004 1.7891-74.691 4.0469l-93.66-84.105-36.328 1.9688 55.297 86.184c-339.79 18.41-256.86-237.81-97.426-246.45-213.33 11.559-306.69 323.54 100.45 301.48l-45.684 91.641 36.297-1.9688 84.086-93.719c60.801-3.293 72.766-3.9414 74.684-4.0469 22.836-1.2383 78.598-21.465 78.207-31.844-0.46094-10.379-58.465-24.426-81.242-23.191z"/>
 </g>
</svg>
