<svg width="29" height="28" viewBox="0 0 29 28" fill="none" xmlns="http://www.w3.org/2000/svg">
<g clip-path="url(#clip0_25_84)">
<path d="M12 4.00001C13.4676 3.99779 14.9074 4.39991 16.1615 5.16224C17.4155 5.92457 18.4353 7.01765 19.1089 8.3215C19.7826 9.62535 20.084 11.0896 19.9801 12.5535C19.8762 14.0174 19.371 15.4244 18.52 16.62L17.73 17.73L16.62 18.52C15.5936 19.2474 14.4101 19.7223 13.1656 19.9061C11.9211 20.09 10.6508 19.9777 9.45789 19.5782C8.26501 19.1788 7.1832 18.5035 6.30039 17.6073C5.41758 16.7111 4.75869 15.6192 4.37726 14.4204C3.99583 13.2217 3.90264 11.9498 4.10524 10.7082C4.30784 9.46666 4.80053 8.29041 5.54326 7.27508C6.286 6.25975 7.25781 5.434 8.37973 4.86492C9.50165 4.29585 10.742 3.99952 12 4.00001ZM12 1.08153e-05C10.1109 -0.00252528 8.24782 0.440993 6.56247 1.29448C4.87713 2.14796 3.41709 3.38729 2.30118 4.91161C1.18527 6.43594 0.445017 8.2022 0.140655 10.0667C-0.163708 11.9311 -0.0235782 13.8411 0.549641 15.6412C1.12286 17.4412 2.11297 19.0805 3.43941 20.4257C4.76584 21.7708 6.39112 22.7838 8.18299 23.3821C9.97485 23.9805 11.8827 24.1474 13.7512 23.8691C15.6197 23.5909 17.3962 22.8755 18.936 21.781L24.571 27.417C25.349 28.194 26.611 28.194 27.388 27.417L27.417 27.388C27.6146 27.2104 27.7726 26.9932 27.8807 26.7505C27.9889 26.5079 28.0448 26.2452 28.0448 25.9795C28.0448 25.7138 27.9889 25.4511 27.8807 25.2085C27.7726 24.9658 27.6146 24.7486 27.417 24.571L21.781 18.936C23.057 17.1419 23.8143 15.0311 23.9698 12.835C24.1254 10.639 23.6732 8.44247 22.6628 6.48643C21.6525 4.53039 20.123 2.89035 18.2421 1.74616C16.3612 0.60198 14.2016 -0.00215538 12 1.08153e-05Z" fill="white"/>
</g>
<defs>
<clipPath id="clip0_25_84">
<rect width="29" height="28" fill="white"/>
</clipPath>
</defs>
</svg>
