<svg xmlns="http://www.w3.org/2000/svg" viewBox="0 0 2010 2010" id="guarantee"><path fill="#ffffff" d="M1682.88,898.13c-10.93-61.97-43.49-118.38-91.7-158.83-27.35-22.95-45.83-54.95-52.03-90.11-10.93-61.97-43.5-118.38-91.7-158.83-48.21-40.45-109.41-62.73-172.34-62.73-35.7,0-70.43-12.64-97.78-35.59-48.21-40.45-109.41-62.73-172.34-62.73s-124.13,22.28-172.34,62.73c-27.35,22.95-62.07,35.59-97.78,35.59-62.93,0-124.13,22.28-172.34,62.73-48.21,40.45-80.77,96.86-91.7,158.83-6.2,35.16-24.67,67.16-52.03,90.11-48.21,40.45-80.77,96.86-91.7,158.83-10.93,61.97,.38,126.12,31.85,180.61,17.85,30.92,24.27,67.31,18.07,102.47-10.93,61.97,.38,126.12,31.85,180.61,31.46,54.5,81.36,96.36,140.49,117.89,33.55,12.21,61.86,35.96,79.71,66.88,31.46,54.5,81.36,96.36,140.49,117.89,59.13,21.52,124.27,21.52,183.4,0,33.55-12.21,70.5-12.21,104.05,0,29.57,10.76,60.63,16.14,91.7,16.14s62.13-5.38,91.7-16.14c59.13-21.52,109.03-63.39,140.49-117.89,17.85-30.92,46.16-54.67,79.71-66.88,59.13-21.52,109.03-63.39,140.49-117.89,31.46-54.5,42.77-118.64,31.85-180.61-6.2-35.16,.22-71.55,18.07-102.47,31.46-54.5,42.77-118.64,31.85-180.61Zm-402.94,22.86l-287.7,284.27c-13.07,12.91-30.8,20.17-49.28,20.17s-36.21-7.26-49.28-20.17l-135.32-133.71c-27.22-26.89-27.22-70.5,0-97.39s71.35-26.89,98.57,0l86.04,85.01,238.42-235.58c27.22-26.89,71.35-26.89,98.57,0s27.22,70.5,0,97.39Z"></path></svg>